<?xml version="1.0" encoding="iso-8859-1"?>
<!-- Generator: Adobe Illustrator 21.0.0, SVG Export Plug-In . SVG Version: 6.00 Build 0)  -->
<svg xmlns="http://www.w3.org/2000/svg" xmlns:xlink="http://www.w3.org/1999/xlink" version="1.1" id="Capa_1" x="0px" y="0px" viewBox="0 0 510 510" style="enable-background:new 0 0 510 510;" xml:space="preserve" width="512" height="512">
<g>
	<g>
		<circle style="fill:#FF749F;" cx="255" cy="7.5" r="7.5"/>
		
			<ellipse transform="matrix(0.9848 -0.1736 0.1736 0.9848 1.2658 36.9883)" style="fill:#FF749F;" cx="212.022" cy="11.26" rx="7.5" ry="7.5"/>
		
			<ellipse transform="matrix(0.9397 -0.342 0.342 0.9397 2.6032 59.6156)" style="fill:#FF749F;" cx="170.35" cy="22.426" rx="7.5" ry="7.5"/>
		
			<ellipse transform="matrix(0.866 -0.5 0.5 0.866 -2.7452 71.0722)" style="fill:#FF749F;" cx="131.25" cy="40.659" rx="7.5" ry="7.5"/>
		
			<ellipse transform="matrix(0.766 -0.6428 0.6428 0.766 -19.6022 76.9514)" style="fill:#FF749F;" cx="95.91" cy="65.404" rx="7.5" ry="7.5"/>
		
			<ellipse transform="matrix(0.6428 -0.766 0.766 0.6428 -50.1083 84.3626)" style="fill:#FF749F;" cx="65.404" cy="95.91" rx="7.5" ry="7.5"/>
		
			<ellipse transform="matrix(0.5 -0.866 0.866 0.5 -93.3365 100.8365)" style="fill:#FF749F;" cx="40.659" cy="131.25" rx="7.5" ry="7.5"/>
		
			<ellipse transform="matrix(0.342 -0.9397 0.9397 0.342 -145.3207 133.1605)" style="fill:#FF749F;" cx="22.426" cy="170.35" rx="7.5" ry="7.5"/>
		
			<ellipse transform="matrix(0.1736 -0.9848 0.9848 0.1736 -199.4962 186.2938)" style="fill:#FF749F;" cx="11.26" cy="212.022" rx="7.5" ry="7.5"/>
		<circle style="fill:#FF749F;" cx="7.5" cy="255" r="7.5"/>
		
			<ellipse transform="matrix(0.9848 -0.1736 0.1736 0.9848 -51.5723 6.4822)" style="fill:#FF749F;" cx="11.26" cy="297.978" rx="7.5" ry="7.5"/>
		
			<ellipse transform="matrix(0.9397 -0.342 0.342 0.9397 -114.8147 28.1536)" style="fill:#FF749F;" cx="22.426" cy="339.65" rx="7.5" ry="7.5"/>
		
			<ellipse transform="matrix(0.866 -0.5 0.5 0.866 -183.9278 71.0722)" style="fill:#FF749F;" cx="40.659" cy="378.75" rx="7.5" ry="7.5"/>
		
			<ellipse transform="matrix(0.766 -0.6428 0.6428 0.766 -250.8703 138.9195)" style="fill:#FF749F;" cx="65.404" cy="414.09" rx="7.5" ry="7.5"/>
		
			<ellipse transform="matrix(0.6428 -0.766 0.766 0.6428 -306.32 232.2866)" style="fill:#FF749F;" cx="95.91" cy="444.596" rx="7.5" ry="7.5"/>
		
			<ellipse transform="matrix(0.5 -0.866 0.866 0.5 -340.8365 348.3365)" style="fill:#FF749F;" cx="131.25" cy="469.341" rx="7.5" ry="7.5"/>
		
			<ellipse transform="matrix(0.342 -0.9397 0.9397 0.342 -346.0827 480.8905)" style="fill:#FF749F;" cx="170.35" cy="487.574" rx="7.5" ry="7.5"/>
		
			<ellipse transform="matrix(0.1736 -0.9848 0.9848 0.1736 -315.9581 620.9356)" style="fill:#FF749F;" cx="212.022" cy="498.74" rx="7.5" ry="7.5"/>
		<circle style="fill:#FF749F;" cx="255" cy="502.5" r="7.5"/>
		
			<ellipse transform="matrix(0.9848 -0.1736 0.1736 0.9848 -82.0783 59.3203)" style="fill:#FF749F;" cx="297.978" cy="498.74" rx="7.5" ry="7.5"/>
		
			<ellipse transform="matrix(0.9397 -0.342 0.342 0.9397 -146.2767 145.5714)" style="fill:#FF749F;" cx="339.65" cy="487.574" rx="7.5" ry="7.5"/>
		
			<ellipse transform="matrix(0.866 -0.5 0.5 0.866 -183.9278 252.2548)" style="fill:#FF749F;" cx="378.75" cy="469.341" rx="7.5" ry="7.5"/>
		
			<ellipse transform="matrix(0.766 -0.6428 0.6428 0.766 -188.9022 370.1876)" style="fill:#FF749F;" cx="414.09" cy="444.596" rx="7.5" ry="7.5"/>
		
			<ellipse transform="matrix(0.6428 -0.766 0.766 0.6428 -158.3961 488.4984)" style="fill:#FF749F;" cx="444.596" cy="414.09" rx="7.5" ry="7.5"/>
		
			<ellipse transform="matrix(0.5 -0.866 0.866 0.5 -93.3365 595.8365)" style="fill:#FF749F;" cx="469.341" cy="378.75" rx="7.5" ry="7.5"/>
		
			<ellipse transform="matrix(0.342 -0.9397 0.9397 0.342 1.6472 681.6525)" style="fill:#FF749F;" cx="487.574" cy="339.65" rx="7.5" ry="7.5"/>
		
			<ellipse transform="matrix(0.1736 -0.9848 0.9848 0.1736 118.6837 737.3975)" style="fill:#FF749F;" cx="498.74" cy="297.978" rx="7.5" ry="7.5"/>
		<circle style="fill:#FF749F;" cx="502.5" cy="255" r="7.5"/>
		
			<ellipse transform="matrix(0.9848 -0.1736 0.1736 0.9848 -29.2403 89.8264)" style="fill:#FF749F;" cx="498.74" cy="212.022" rx="7.5" ry="7.5"/>
		
			<ellipse transform="matrix(0.9397 -0.342 0.342 0.9397 -28.8588 177.0335)" style="fill:#FF749F;" cx="487.574" cy="170.35" rx="7.5" ry="7.5"/>
		
			<ellipse transform="matrix(0.866 -0.5 0.5 0.866 -2.7452 252.2548)" style="fill:#FF749F;" cx="469.341" cy="131.25" rx="7.5" ry="7.5"/>
		
			<ellipse transform="matrix(0.766 -0.6428 0.6428 0.766 42.3659 308.2195)" style="fill:#FF749F;" cx="444.596" cy="95.91" rx="7.5" ry="7.5"/>
		
			<ellipse transform="matrix(0.6428 -0.766 0.766 0.6428 97.8157 340.5744)" style="fill:#FF749F;" cx="414.09" cy="65.404" rx="7.5" ry="7.5"/>
		
			<ellipse transform="matrix(0.5 -0.866 0.866 0.5 154.1635 348.3365)" style="fill:#FF749F;" cx="378.75" cy="40.659" rx="7.5" ry="7.5"/>
		
			<ellipse transform="matrix(0.342 -0.9397 0.9397 0.342 202.4092 333.9225)" style="fill:#FF749F;" cx="339.65" cy="22.426" rx="7.5" ry="7.5"/>
		
			<ellipse transform="matrix(0.1736 -0.9848 0.9848 0.1736 235.1456 302.7558)" style="fill:#FF749F;" cx="297.978" cy="11.26" rx="7.5" ry="7.5"/>
	</g>
	<g>
		<path style="fill:#CC70C2;" d="M473.53,247.411c-6.937-2.312-13.946-9.916-22.063-18.721    c-12.124-13.151-26.571-28.818-48.465-34.995c11.114-19.849,10.251-41.143,9.524-59.015c-0.486-11.964-0.907-22.298,2.364-28.837    c1.54-3.08,0.936-6.8-1.499-9.235c-2.435-2.435-6.154-3.039-9.234-1.499c-6.54,3.27-16.873,2.85-28.838,2.363    c-17.872-0.726-39.166-1.589-59.015,9.525c-6.177-21.894-21.844-36.341-34.995-48.465c-8.804-8.116-16.408-15.126-18.72-22.063    C261.501,33.203,258.443,31,255,31s-6.5,2.203-7.589,5.47c-2.312,6.937-9.916,13.946-18.721,22.063    c-13.151,12.124-28.818,26.571-34.995,48.465c-19.849-11.113-41.143-10.251-59.015-9.524c-11.964,0.486-22.298,0.907-28.837-2.364    c-3.08-1.54-6.8-0.936-9.234,1.499c-2.435,2.435-3.039,6.155-1.499,9.234c3.27,6.54,2.85,16.873,2.363,28.838    c-0.726,17.873-1.589,39.167,9.525,59.015c-21.894,6.177-36.341,21.844-48.465,34.995c-8.116,8.804-15.126,16.408-22.063,18.72    C33.203,248.499,31,251.557,31,255s2.203,6.5,5.47,7.589c6.937,2.312,13.946,9.916,22.063,18.721    c12.124,13.151,26.571,28.818,48.465,34.995c-11.114,19.849-10.251,41.143-9.524,59.015c0.486,11.964,0.907,22.298-2.364,28.837    c-1.54,3.08-0.936,6.8,1.499,9.235c2.435,2.435,6.154,3.039,9.234,1.499c6.54-3.27,16.873-2.85,28.838-2.363    c17.872,0.726,39.166,1.589,59.015-9.525c6.177,21.894,21.844,36.341,34.995,48.465c8.804,8.116,16.408,15.126,18.72,22.063    c1.089,3.267,4.146,5.47,7.59,5.47s6.5-2.203,7.589-5.47c2.312-6.937,9.916-13.946,18.721-22.063    c13.151-12.124,28.818-26.571,34.995-48.465c19.849,11.113,41.143,10.251,59.015,9.524c11.964-0.486,22.298-0.907,28.837,2.364    c3.08,1.54,6.8,0.936,9.234-1.499c2.435-2.435,3.039-6.155,1.499-9.234c-3.27-6.54-2.85-16.873-2.363-28.838    c0.726-17.873,1.589-39.167-9.525-59.015c21.894-6.177,36.341-21.844,48.465-34.995c8.116-8.804,15.126-16.408,22.063-18.72    c3.267-1.089,5.47-4.146,5.47-7.59S476.797,248.5,473.53,247.411z M255,327c-11.919,0-23.111,2.366-32.638,6.795    c-3.604-9.869-9.845-19.456-18.273-27.884c-8.428-8.428-18.015-14.669-27.884-18.273C180.634,278.111,183,266.919,183,255    c0-11.919-2.366-23.111-6.796-32.638c9.869-3.604,19.456-9.846,27.884-18.273c8.428-8.428,14.669-18.015,18.273-27.884    C231.889,180.634,243.081,183,255,183c11.919,0,23.111-2.366,32.638-6.795c3.604,9.869,9.845,19.456,18.273,27.884    c8.428,8.428,18.015,14.669,27.884,18.273C329.366,231.889,327,243.081,327,255c0,11.919,2.366,23.111,6.796,32.638    c-9.869,3.604-19.456,9.846-27.884,18.273c-8.428,8.428-14.669,18.015-18.273,27.884C278.111,329.366,266.919,327,255,327z"/>
		<path style="fill:#FF97B7;" d="M373.794,136.206c-12.477-12.477-32.778-12.477-45.255,0c-12.477,12.477-12.477,32.778,0,45.255    c12.477,12.477,32.778,12.477,45.255,0C386.271,168.984,386.271,148.683,373.794,136.206z"/>
	</g>
	<path style="fill:#FF97B7;" d="M255,87c-17.645,0-32,14.355-32,32s14.355,32,32,32c17.645,0,32-14.355,32-32S272.645,87,255,87z"/>
	<path style="fill:#FF97B7;" d="M136.206,136.206c-12.477,12.477-12.477,32.778,0,45.255c12.477,12.477,32.778,12.477,45.255,0   c12.477-12.477,12.477-32.778,0-45.255C168.984,123.729,148.683,123.729,136.206,136.206z"/>
	<path style="fill:#FF97B7;" d="M87,255c0,17.645,14.355,32,32,32s32-14.355,32-32c0-17.645-14.355-32-32-32S87,237.355,87,255z"/>
	<path style="fill:#FF97B7;" d="M136.206,373.794c12.477,12.477,32.778,12.477,45.255,0c12.477-12.477,12.477-32.778,0-45.255   c-12.477-12.477-32.778-12.477-45.255,0C123.729,341.016,123.729,361.317,136.206,373.794z"/>
	<path style="fill:#FF97B7;" d="M255,423c17.645,0,32-14.355,32-32s-14.355-32-32-32c-17.645,0-32,14.355-32,32S237.355,423,255,423   z"/>
	<path style="fill:#FF97B7;" d="M373.794,373.794c12.477-12.477,12.477-32.778,0-45.255c-12.477-12.477-32.778-12.477-45.255,0   c-12.477,12.477-12.477,32.778,0,45.255C341.016,386.271,361.317,386.271,373.794,373.794z"/>
	<path style="fill:#FF97B7;" d="M423,255c0-17.645-14.355-32-32-32s-32,14.355-32,32c0,17.645,14.355,32,32,32S423,272.645,423,255z   "/>
	<circle style="fill:#93D689;" cx="255" cy="255" r="136"/>
	<path style="fill:#4BBA3A;" d="M287,367c-75.111,0-136-60.889-136-136c0-37.313,15.031-71.113,39.364-95.686   C147.866,158.314,119,203.285,119,255c0,75.111,60.889,136,136,136c37.797,0,71.989-15.423,96.636-40.314   C332.41,361.09,310.396,367,287,367z"/>
	<g>
		<circle style="fill:#FFDF78;" cx="335" cy="63" r="16"/>
		
			<ellipse transform="matrix(0.7071 -0.7071 0.7071 0.7071 7.1796 142.667)" style="fill:#FFDF78;" cx="175.804" cy="62.667" rx="16" ry="16"/>
		<circle style="fill:#FFDF78;" cx="63" cy="175" r="16"/>
		
			<ellipse transform="matrix(0.7071 -0.7071 0.7071 0.7071 -217.9575 142.196)" style="fill:#FFDF78;" cx="62.667" cy="334.196" rx="16" ry="16"/>
		<circle style="fill:#FFDF78;" cx="175" cy="447" r="16"/>
		
			<ellipse transform="matrix(0.7071 -0.7071 0.7071 0.7071 -218.4285 367.333)" style="fill:#FFDF78;" cx="334.196" cy="447.333" rx="16" ry="16"/>
		<circle style="fill:#FFDF78;" cx="447" cy="335" r="16"/>
		
			<ellipse transform="matrix(0.7071 -0.7071 0.7071 0.7071 6.7086 367.804)" style="fill:#FFDF78;" cx="447.333" cy="175.804" rx="16" ry="16"/>
	</g>
	<g>
		<circle style="fill:#F0EFEE;" cx="255" cy="151" r="7.5"/>
		
			<ellipse transform="matrix(0.9397 -0.342 0.342 0.9397 -40.5569 84.5341)" style="fill:#F0EFEE;" cx="219.43" cy="157.272" rx="7.5" ry="7.5"/>
		
			<ellipse transform="matrix(0.766 -0.6428 0.6428 0.766 -68.6821 161.9603)" style="fill:#F0EFEE;" cx="188.15" cy="175.331" rx="7.5" ry="7.5"/>
		
			<ellipse transform="matrix(0.5 -0.866 0.866 0.5 -93.3365 244.3365)" style="fill:#F0EFEE;" cx="164.933" cy="203" rx="7.5" ry="7.5"/>
		
			<ellipse transform="matrix(0.1736 -0.9848 0.9848 0.1736 -107.2562 346.0583)" style="fill:#F0EFEE;" cx="152.58" cy="236.941" rx="7.5" ry="7.5"/>
		
			<ellipse transform="matrix(0.9848 -0.1736 0.1736 0.9848 -45.0982 30.6436)" style="fill:#F0EFEE;" cx="152.58" cy="273.059" rx="7.5" ry="7.5"/>
		
			<ellipse transform="matrix(0.866 -0.5 0.5 0.866 -131.4031 123.5969)" style="fill:#F0EFEE;" cx="164.933" cy="307" rx="7.5" ry="7.5"/>
		
			<ellipse transform="matrix(0.6428 -0.766 0.766 0.6428 -189.1615 263.6791)" style="fill:#F0EFEE;" cx="188.15" cy="334.669" rx="7.5" ry="7.5"/>
		
			<ellipse transform="matrix(0.342 -0.9397 0.9397 0.342 -187.0755 438.2846)" style="fill:#F0EFEE;" cx="219.43" cy="352.728" rx="7.5" ry="7.5"/>
		<circle style="fill:#F0EFEE;" cx="255" cy="359" r="7.5"/>
		
			<ellipse transform="matrix(0.9397 -0.342 0.342 0.9397 -103.1166 120.6529)" style="fill:#F0EFEE;" cx="290.57" cy="352.728" rx="7.5" ry="7.5"/>
		
			<ellipse transform="matrix(0.766 -0.6428 0.6428 0.766 -139.8223 285.1787)" style="fill:#F0EFEE;" cx="321.85" cy="334.669" rx="7.5" ry="7.5"/>
		
			<ellipse transform="matrix(0.5 -0.866 0.866 0.5 -93.3365 452.3365)" style="fill:#F0EFEE;" cx="345.067" cy="307" rx="7.5" ry="7.5"/>
		
			<ellipse transform="matrix(0.1736 -0.9848 0.9848 0.1736 26.4436 577.6331)" style="fill:#F0EFEE;" cx="357.42" cy="273.059" rx="7.5" ry="7.5"/>
		
			<ellipse transform="matrix(0.9848 -0.1736 0.1736 0.9848 -35.7143 65.665)" style="fill:#F0EFEE;" cx="357.42" cy="236.941" rx="7.5" ry="7.5"/>
		
			<ellipse transform="matrix(0.866 -0.5 0.5 0.866 -55.2698 199.7302)" style="fill:#F0EFEE;" cx="345.067" cy="203" rx="7.5" ry="7.5"/>
		
			<ellipse transform="matrix(0.6428 -0.766 0.766 0.6428 -19.3429 309.1819)" style="fill:#F0EFEE;" cx="321.85" cy="175.331" rx="7.5" ry="7.5"/>
		
			<ellipse transform="matrix(0.342 -0.9397 0.9397 0.342 43.402 376.5284)" style="fill:#F0EFEE;" cx="290.57" cy="157.272" rx="7.5" ry="7.5"/>
	</g>
	<path style="fill:#FFDF78;" d="M331.116,248.14c-0.544-0.325-11.754-7.015-27.156-13.42c6.361-15.42,9.56-28.076,9.713-28.691   c0.682-2.726-0.117-5.61-2.104-7.597c-1.986-1.988-4.872-2.789-7.598-2.104c-0.614,0.153-13.271,3.351-28.691,9.713   c-6.406-15.402-13.095-26.612-13.42-27.156c-1.446-2.409-4.05-3.884-6.86-3.884c-2.81,0-5.414,1.475-6.86,3.884   c-0.326,0.544-7.015,11.754-13.42,27.156c-15.42-6.362-28.077-9.56-28.691-9.713c-2.725-0.684-5.61,0.117-7.597,2.104   c-1.987,1.987-2.786,4.871-2.104,7.598c0.154,0.615,3.352,13.271,9.713,28.691c-15.402,6.405-26.613,13.095-27.156,13.42   c-2.41,1.446-3.884,4.05-3.884,6.86s1.474,5.414,3.884,6.86c0.543,0.325,11.754,7.015,27.156,13.42   c-6.361,15.42-9.559,28.076-9.713,28.691c-0.682,2.727,0.117,5.61,2.104,7.598c1.987,1.986,4.87,2.788,7.597,2.104   c0.615-0.153,13.271-3.351,28.691-9.713c6.405,15.401,13.094,26.612,13.42,27.156c1.446,2.409,4.05,3.884,6.86,3.884   c2.811,0,5.414-1.475,6.86-3.884c0.326-0.544,7.014-11.755,13.42-27.156c15.42,6.362,28.077,9.56,28.691,9.713   c2.726,0.684,5.611-0.116,7.598-2.104c1.986-1.986,2.785-4.871,2.104-7.597c-0.153-0.615-3.352-13.271-9.713-28.691   c15.402-6.405,26.612-13.095,27.156-13.42c2.409-1.446,3.884-4.05,3.884-6.86S333.525,249.586,331.116,248.14z"/>
	<path style="fill:#FF97B7;" d="M255,231c-13.234,0-24,10.767-24,24s10.766,24,24,24c13.233,0,24-10.767,24-24S268.233,231,255,231z   "/>
</g>















</svg>
