<svg height="512" viewBox="0 0 128 128" width="512" xmlns="http://www.w3.org/2000/svg"><g><g fill="#a260e5"><path d="m64 25.125a38.75 38.75 0 0 1 14.2 2.687 29.067 29.067 0 0 0 .489-5.249c-.002-11.495-14.689-20.813-14.689-20.813s-14.688 9.318-14.688 20.813a29.066 29.066 0 0 0 .49 5.249 38.75 38.75 0 0 1 14.198-2.687z"/><path d="m64 102.875a38.75 38.75 0 0 0 14.2-2.687 29.069 29.069 0 0 1 .489 5.25c-.002 11.494-14.689 20.812-14.689 20.812s-14.688-9.318-14.688-20.812a29.069 29.069 0 0 1 .49-5.25 38.75 38.75 0 0 0 14.198 2.687z"/><path d="m64 25.125a38.75 38.75 0 0 1 14.2 2.687 29.067 29.067 0 0 0 .489-5.249c-.002-11.495-14.689-20.813-14.689-20.813s-14.688 9.318-14.688 20.813a29.066 29.066 0 0 0 .49 5.249 38.75 38.75 0 0 1 14.198-2.687z"/><path d="m64 102.875a38.75 38.75 0 0 0 14.2-2.687 29.069 29.069 0 0 1 .489 5.25c-.002 11.494-14.689 20.812-14.689 20.812s-14.688-9.318-14.688-20.812a29.069 29.069 0 0 1 .49-5.25 38.75 38.75 0 0 0 14.198 2.687z"/><path d="m91.489 36.511a38.765 38.765 0 0 1 8.139 11.939 28.9 28.9 0 0 0 4.058-3.365c8.128-8.128 4.331-25.1 4.331-25.1s-16.974-3.8-25.1 4.331a28.9 28.9 0 0 0 -3.365 4.058 38.765 38.765 0 0 1 11.937 8.137z"/><path d="m36.511 91.489a38.765 38.765 0 0 0 11.939 8.139 28.9 28.9 0 0 1 -3.365 4.058c-8.128 8.128-25.1 4.331-25.1 4.331s-3.8-16.974 4.331-25.1a28.9 28.9 0 0 1 4.058-3.365 38.765 38.765 0 0 0 8.137 11.937z"/><path d="m102.875 64a38.75 38.75 0 0 1 -2.687 14.2 29.066 29.066 0 0 0 5.249.49c11.495-.002 20.813-14.69 20.813-14.69s-9.318-14.687-20.813-14.687a29.067 29.067 0 0 0 -5.249.489 38.75 38.75 0 0 1 2.687 14.198z"/><path d="m25.125 64a38.75 38.75 0 0 0 2.687 14.2 29.159 29.159 0 0 1 -5.25.49c-11.494-.002-20.812-14.69-20.812-14.69s9.318-14.687 20.812-14.687a29.069 29.069 0 0 1 5.25.489 38.75 38.75 0 0 0 -2.687 14.198z"/><path d="m91.489 91.489a38.765 38.765 0 0 1 -11.939 8.139 28.9 28.9 0 0 0 3.365 4.058c8.128 8.128 25.1 4.331 25.1 4.331s3.8-16.974-4.331-25.1a28.9 28.9 0 0 0 -4.058-3.365 38.765 38.765 0 0 1 -8.137 11.937z"/><path d="m36.511 36.511a38.765 38.765 0 0 0 -8.139 11.939 28.9 28.9 0 0 1 -4.058-3.365c-8.128-8.128-4.331-25.1-4.331-25.1s16.974-3.8 25.1 4.331a28.9 28.9 0 0 1 3.365 4.058 38.765 38.765 0 0 0 -11.937 8.137z"/></g><g fill="#c7e554"><path d="m64 13.031a1.749 1.749 0 0 0 -1.75 1.75v10.344a1.75 1.75 0 0 0 3.5 0v-10.344a1.749 1.749 0 0 0 -1.75-1.75z"/><path d="m64 101.125a1.75 1.75 0 0 0 -1.75 1.75v10.344a1.75 1.75 0 0 0 3.5 0v-10.344a1.75 1.75 0 0 0 -1.75-1.75z"/><path d="m97.565 27.959-7.313 7.315a1.75 1.75 0 0 0 2.475 2.475l7.313-7.315a1.75 1.75 0 1 0 -2.475-2.475z"/><path d="m35.273 90.251-7.313 7.315a1.75 1.75 0 0 0 2.475 2.475l7.313-7.315a1.75 1.75 0 0 0 -2.475-2.475z"/><path d="m113.219 62.25h-10.344a1.75 1.75 0 0 0 0 3.5h10.344a1.75 1.75 0 0 0 0-3.5z"/><path d="m25.125 62.25h-10.344a1.75 1.75 0 0 0 0 3.5h10.344a1.75 1.75 0 0 0 0-3.5z"/><path d="m92.727 90.251a1.75 1.75 0 1 0 -2.475 2.475l7.313 7.315a1.75 1.75 0 1 0 2.475-2.475z"/><path d="m30.435 27.959a1.75 1.75 0 1 0 -2.475 2.475l7.313 7.315a1.75 1.75 0 0 0 2.475-2.475z"/></g><circle cx="64" cy="64" fill="#f3d232" r="38.875"/><g fill="#e2a76f"><path d="m83.437 54.807a24.858 24.858 0 0 0 -12.526 3.84 8.71 8.71 0 0 1 0 10.706 24.858 24.858 0 0 0 12.526 3.84c10.736 0 19.438-9.193 19.438-9.193s-8.702-9.193-19.438-9.193z"/><path d="m64 55.25a8.7 8.7 0 0 1 5.353 1.839 24.858 24.858 0 0 0 3.84-12.526c0-10.736-9.193-19.438-9.193-19.438s-9.193 8.7-9.193 19.438a24.858 24.858 0 0 0 3.84 12.526 8.7 8.7 0 0 1 5.353-1.839z"/><path d="m69.353 70.911a8.71 8.71 0 0 1 -10.706 0 24.859 24.859 0 0 0 -3.84 12.527c0 10.735 9.193 19.437 9.193 19.437s9.193-8.7 9.193-19.437a24.859 24.859 0 0 0 -3.84-12.527z"/><path d="m55.25 64a8.7 8.7 0 0 1 1.839-5.353 24.859 24.859 0 0 0 -12.527-3.84c-10.735 0-19.437 9.193-19.437 9.193s8.7 9.193 19.437 9.193a24.859 24.859 0 0 0 12.527-3.84 8.7 8.7 0 0 1 -1.839-5.353z"/></g><g fill="#5b362a"><path d="m64 41.625a1.75 1.75 0 0 0 -1.75 1.75v11.875a1.75 1.75 0 0 0 3.5 0v-11.875a1.75 1.75 0 0 0 -1.75-1.75z"/><path d="m64 71a1.75 1.75 0 0 0 -1.75 1.75v11.875a1.75 1.75 0 0 0 3.5 0v-11.875a1.75 1.75 0 0 0 -1.75-1.75z"/><path d="m84.625 62.25h-11.875a1.75 1.75 0 0 0 0 3.5h11.875a1.75 1.75 0 0 0 0-3.5z"/><path d="m55.25 62.25h-11.875a1.75 1.75 0 0 0 0 3.5h11.875a1.75 1.75 0 0 0 0-3.5z"/></g><g fill="#d85134"><circle cx="64" cy="64" r="8.75"/><circle cx="83.596" cy="44.404" r="3.583"/><circle cx="44.404" cy="83.596" r="3.583"/><circle cx="83.596" cy="83.596" r="3.583"/><circle cx="44.404" cy="44.404" r="3.583"/></g></g></svg>