<svg height="512" viewBox="0 0 128 128" width="512" xmlns="http://www.w3.org/2000/svg"><g><g fill="#7b49ad"><path d="m83.75 15.625c-12.875 3.075-21.25 24.059-21.25 24.059l18.422 8.248s9.366-20.544 2.828-32.307z"/><path d="m43.759 15.828c-6.932 11.272 1.986 32.038 1.986 32.038l18.855-7.194s-7.9-21.149-20.841-24.844z"/><path d="m15.625 44.25c3.075 12.875 24.059 21.25 24.059 21.25l8.248-18.422s-20.544-9.366-32.307-2.828z"/><path d="m15.828 84.241c11.276 6.932 32.038-1.986 32.038-1.986l-7.194-18.855s-21.149 7.9-24.844 20.841z"/><path d="m44.25 112.375c12.875-3.075 21.25-24.059 21.25-24.059l-18.422-8.248s-9.366 20.544-2.828 32.307z"/><path d="m84.241 112.172c6.932-11.276-1.986-32.038-1.986-32.038l-18.855 7.194s7.9 21.149 20.841 24.844z"/><path d="m112.375 83.75c-3.075-12.875-24.059-21.25-24.059-21.25l-8.248 18.422s20.544 9.366 32.307 2.828z"/><path d="m112.172 43.759c-11.276-6.932-32.038 1.986-32.038 1.986l7.194 18.855s21.149-7.9 24.844-20.841z"/></g><g fill="#a260e5"><path d="m87.511 55.161c12.817-10.872 18.385-21.213 17.148-31.82-10.607-1.241-20.948 4.331-31.82 17.148z"/><path d="m74.375 41.125c1.375-16.75-2-28-10.375-34.625-8.375 6.625-11.75 17.875-10.375 34.625z"/><path d="m55.161 40.489c-10.872-12.817-21.213-18.389-31.82-17.148-1.241 10.607 4.331 20.948 17.148 31.82z"/><path d="m41.125 53.625c-16.75-1.375-28 2-34.625 10.375 6.625 8.375 17.875 11.75 34.625 10.375z"/><path d="m40.489 72.839c-12.817 10.872-18.389 21.213-17.148 31.82 10.607 1.237 20.948-4.331 31.82-17.148z"/><path d="m53.625 86.875c-1.375 16.75 2 28 10.375 34.625 8.375-6.625 11.75-17.875 10.375-34.625z"/><path d="m72.839 87.511c10.872 12.817 21.213 18.385 31.82 17.148 1.237-10.607-4.331-20.948-17.148-31.82z"/><path d="m86.875 74.375c16.75 1.375 28-2 34.625-10.375-6.625-8.375-17.875-11.75-34.625-10.375z"/></g><path d="m64 49.682a1.751 1.751 0 0 1 -1.75-1.75v-27.265a1.75 1.75 0 0 1 3.5 0v27.265a1.751 1.751 0 0 1 -1.75 1.75z" fill="#eaeaf0"/><path d="m52.638 54.388a1.745 1.745 0 0 1 -1.238-.513l-19.278-19.275a1.749 1.749 0 1 1 2.478-2.478l19.275 19.278a1.751 1.751 0 0 1 -1.237 2.988z" fill="#eaeaf0"/><path d="m47.932 65.75h-27.265a1.75 1.75 0 0 1 0-3.5h27.265a1.75 1.75 0 0 1 0 3.5z" fill="#eaeaf0"/><path d="m33.359 96.391a1.75 1.75 0 0 1 -1.237-2.991l19.278-19.275a1.75 1.75 0 1 1 2.475 2.475l-19.275 19.278a1.743 1.743 0 0 1 -1.241.513z" fill="#eaeaf0"/><path d="m64 109.083a1.75 1.75 0 0 1 -1.75-1.75v-27.265a1.75 1.75 0 1 1 3.5 0v27.265a1.75 1.75 0 0 1 -1.75 1.75z" fill="#eaeaf0"/><path d="m94.641 96.391a1.743 1.743 0 0 1 -1.237-.513l-19.279-19.278a1.75 1.75 0 0 1 2.475-2.475l19.278 19.275a1.75 1.75 0 0 1 -1.237 2.987z" fill="#eaeaf0"/><path d="m107.333 65.75h-27.265a1.75 1.75 0 1 1 0-3.5h27.265a1.75 1.75 0 0 1 0 3.5z" fill="#eaeaf0"/><path d="m75.362 54.388a1.751 1.751 0 0 1 -1.237-2.988l19.275-19.278a1.749 1.749 0 0 1 2.478 2.478l-19.278 19.275a1.745 1.745 0 0 1 -1.238.513z" fill="#eaeaf0"/><circle cx="64" cy="64" fill="#7b49ad" r="28.75"/><g fill="#eaeaf0"><circle cx="64" cy="64" r="4.5"/><path d="m62.25 86.87a1.743 1.743 0 0 1 1.75-1.74 1.743 1.743 0 0 1 1.75 1.74 1.746 1.746 0 0 1 -1.75 1.75v.01a1.754 1.754 0 0 1 -1.75-1.76zm3.75-.01a1.756 1.756 0 0 1 1.44-2.02 1.763 1.763 0 0 1 2.02 1.45 1.758 1.758 0 0 1 -1.45 2.01 2.635 2.635 0 0 1 -.28.02 1.75 1.75 0 0 1 -1.73-1.46zm-7.34 1.18a1.747 1.747 0 0 1 -1.33-2.08 1.75 1.75 0 0 1 2.09-1.33 1.742 1.742 0 0 1 1.33 2.08 1.75 1.75 0 0 1 -1.71 1.37 1.7 1.7 0 0 1 -.38-.04zm12.25-2.16a1.75 1.75 0 0 1 .97-2.28 1.757 1.757 0 0 1 2.28.97 1.758 1.758 0 0 1 -.97 2.28 1.936 1.936 0 0 1 -.66.13 1.75 1.75 0 0 1 -1.62-1.1zm-17.34.43a1.755 1.755 0 0 1 -.84-2.33 1.75 1.75 0 0 1 2.33-.84 1.747 1.747 0 0 1 .84 2.33 1.754 1.754 0 0 1 -1.58 1 1.808 1.808 0 0 1 -.75-.16zm21.91-2.45a1.763 1.763 0 0 1 .46-2.44 1.751 1.751 0 0 1 2.43.45 1.77 1.77 0 0 1 -.45 2.44 1.74 1.74 0 0 1 -.99.3 1.757 1.757 0 0 1 -1.45-.75zm-26.49-.35a1.742 1.742 0 0 1 -.32-2.45 1.753 1.753 0 0 1 2.46-.32 1.749 1.749 0 0 1 .31 2.45 1.723 1.723 0 0 1 -1.38.68 1.707 1.707 0 0 1 -1.07-.36zm30.52-2.62a1.763 1.763 0 0 1 -.08-2.48v.01a1.742 1.742 0 0 1 2.47-.09 1.764 1.764 0 0 1 .09 2.48 1.8 1.8 0 0 1 -1.28.55 1.782 1.782 0 0 1 -1.2-.47zm-34.39-1.1a1.736 1.736 0 0 1 .22-2.46 1.736 1.736 0 0 1 2.46.22 1.745 1.745 0 0 1 -.22 2.46 1.687 1.687 0 0 1 -1.12.41 1.714 1.714 0 0 1 -1.34-.63zm37.69-2.66a1.76 1.76 0 0 1 -.62-2.4 1.76 1.76 0 0 1 2.4-.62 1.758 1.758 0 0 1 .62 2.4 1.773 1.773 0 0 1 -1.51.86 1.775 1.775 0 0 1 -.89-.24zm-40.67-1.8a1.749 1.749 0 0 1 .74-2.36 1.749 1.749 0 0 1 2.36.74 1.74 1.74 0 0 1 -.74 2.36 1.7 1.7 0 0 1 -.81.2 1.74 1.74 0 0 1 -1.55-.94zm43.07-2.59a1.752 1.752 0 0 1 -1.12-2.21 1.752 1.752 0 0 1 2.21-1.12 1.745 1.745 0 0 1 1.12 2.2v.01a1.756 1.756 0 0 1 -1.66 1.2 1.745 1.745 0 0 1 -.55-.08zm-45.01-2.42a1.74 1.74 0 0 1 1.24-2.14 1.745 1.745 0 0 1 2.14 1.24 1.753 1.753 0 0 1 -1.24 2.14 1.74 1.74 0 0 1 -.45.06 1.741 1.741 0 0 1 -1.69-1.3zm46.41-2.39a1.751 1.751 0 0 1 -1.58-1.91 1.758 1.758 0 0 1 1.91-1.58 1.749 1.749 0 0 1 1.57 1.91 1.749 1.749 0 0 1 -1.74 1.59c-.05 0-.11-.01-.16-.01zm-47.21-2.92a1.739 1.739 0 0 1 1.67-1.82 1.747 1.747 0 0 1 1.82 1.68 1.753 1.753 0 0 1 -1.68 1.82h-.07a1.742 1.742 0 0 1 -1.74-1.68zm45.57-3.6a1.746 1.746 0 0 1 1.52-1.95 1.753 1.753 0 0 1 1.95 1.53 1.751 1.751 0 0 1 -1.52 1.95c-.08 0-.15.01-.22.01a1.748 1.748 0 0 1 -1.73-1.54zm-43.8.27a1.748 1.748 0 0 1 -1.41-2.03 1.748 1.748 0 0 1 2.03-1.41 1.741 1.741 0 0 1 1.41 2.03 1.747 1.747 0 0 1 -1.72 1.44 1.709 1.709 0 0 1 -.31-.03zm42.74-4.75a1.737 1.737 0 0 1 1.06-2.23 1.752 1.752 0 0 1 2.24 1.06 1.751 1.751 0 0 1 -1.07 2.23 1.686 1.686 0 0 1 -.58.1 1.739 1.739 0 0 1 -1.65-1.16zm-41.69-.14a1.758 1.758 0 0 1 -.94-2.29 1.749 1.749 0 0 1 2.29-.94 1.754 1.754 0 0 1 .94 2.29 1.744 1.744 0 0 1 -1.61 1.07 1.787 1.787 0 0 1 -.68-.13zm39.68-4a1.739 1.739 0 0 1 .55-2.41 1.747 1.747 0 0 1 2.41.54 1.761 1.761 0 0 1 -.55 2.42 1.758 1.758 0 0 1 -.93.27 1.741 1.741 0 0 1 -1.48-.82zm-37.59-.55a1.749 1.749 0 0 1 -.42-2.44 1.758 1.758 0 0 1 2.44-.42 1.75 1.75 0 0 1 .42 2.44 1.725 1.725 0 0 1 -1.43.74 1.706 1.706 0 0 1 -1.01-.32zm34.72-3.06a1.763 1.763 0 0 1 .02-2.48 1.753 1.753 0 0 1 2.48.02 1.741 1.741 0 0 1 -.02 2.47 1.743 1.743 0 0 1 -1.23.51 1.8 1.8 0 0 1 -1.25-.52zm-31.7-.93a1.744 1.744 0 0 1 .12-2.47 1.744 1.744 0 0 1 2.47.12 1.744 1.744 0 0 1 -.12 2.47 1.7 1.7 0 0 1 -1.17.46 1.763 1.763 0 0 1 -1.3-.58zm28.13-1.99a1.744 1.744 0 0 1 -.51-2.42 1.742 1.742 0 0 1 2.42-.51 1.742 1.742 0 0 1 .51 2.42 1.755 1.755 0 0 1 -1.47.79 1.774 1.774 0 0 1 -.95-.28zm-24.32-1.25a1.751 1.751 0 0 1 .65-2.39 1.753 1.753 0 0 1 2.39.65 1.751 1.751 0 0 1 -.65 2.39 1.745 1.745 0 0 1 -.87.23 1.75 1.75 0 0 1 -1.52-.88zm20.2-.82h.01a1.743 1.743 0 0 1 -1.03-2.25 1.748 1.748 0 0 1 2.25-1.03 1.764 1.764 0 0 1 1.03 2.25 1.75 1.75 0 0 1 -1.64 1.14 1.692 1.692 0 0 1 -.62-.11zm-15.78-1.52a1.742 1.742 0 0 1 1.15-2.19v-.01a1.756 1.756 0 0 1 2.19 1.16 1.751 1.751 0 0 1 -1.15 2.19 1.876 1.876 0 0 1 -.52.08 1.752 1.752 0 0 1 -1.67-1.23zm11.32.4a1.749 1.749 0 0 1 -1.5-1.97 1.754 1.754 0 0 1 1.97-1.5 1.754 1.754 0 0 1 1.5 1.97 1.753 1.753 0 0 1 -1.73 1.52 1.942 1.942 0 0 1 -.24-.02zm-6.49-1.73a1.734 1.734 0 0 1 1.6-1.88 1.747 1.747 0 0 1 1.88 1.6 1.741 1.741 0 0 1 -1.6 1.88v.01h-.14a1.737 1.737 0 0 1 -1.74-1.61z"/><path d="m64 54.612a1.751 1.751 0 0 1 -1.75-1.75v-3.612a1.75 1.75 0 0 1 3.5 0v3.612a1.751 1.751 0 0 1 -1.75 1.75z"/><path d="m56.124 57.874a1.743 1.743 0 0 1 -1.237-.513l-2.554-2.553a1.75 1.75 0 1 1 2.475-2.475l2.553 2.554a1.75 1.75 0 0 1 -1.237 2.987z"/><path d="m52.862 65.75h-3.612a1.75 1.75 0 0 1 0-3.5h3.612a1.75 1.75 0 0 1 0 3.5z"/><path d="m53.57 76.18a1.751 1.751 0 0 1 -1.237-2.988l2.554-2.553a1.749 1.749 0 0 1 2.474 2.474l-2.553 2.554a1.745 1.745 0 0 1 -1.238.513z"/><path d="m64 80.5a1.751 1.751 0 0 1 -1.75-1.75v-3.612a1.75 1.75 0 0 1 3.5 0v3.612a1.751 1.751 0 0 1 -1.75 1.75z"/><path d="m74.43 76.18a1.745 1.745 0 0 1 -1.238-.513l-2.553-2.554a1.749 1.749 0 0 1 2.474-2.474l2.554 2.553a1.751 1.751 0 0 1 -1.237 2.988z"/><path d="m78.75 65.75h-3.612a1.75 1.75 0 0 1 0-3.5h3.612a1.75 1.75 0 0 1 0 3.5z"/><path d="m71.876 57.874a1.75 1.75 0 0 1 -1.237-2.987l2.553-2.554a1.75 1.75 0 0 1 2.475 2.475l-2.554 2.553a1.743 1.743 0 0 1 -1.237.513z"/></g></g></svg>