<svg id="Flat" enable-background="new 0 0 512 512" height="512" viewBox="0 0 512 512" width="512" xmlns="http://www.w3.org/2000/svg"><circle cx="256" cy="256" fill="#ff593f" r="216"/><path d="m221.776 116.109c10.973-2.685 22.435-4.109 34.224-4.109s23.251 1.424 34.224 4.109l5.429-9.501c14.164-24.788 8.901-56.123-12.584-74.923l-27.069-23.685-27.068 23.685c-21.486 18.8-26.749 50.135-12.584 74.923z" fill="#d191ff"/><path d="m222.216 395.891c10.973 2.685 22.435 4.109 34.224 4.109s23.251-1.424 34.224-4.109l5.429 9.501c14.164 24.788 8.901 56.123-12.584 74.923l-27.07 23.685-27.068-23.685c-21.486-18.8-26.749-50.135-12.584-74.923z" fill="#d191ff"/><path d="m132.946 181.437c5.861-9.657 12.959-18.769 21.295-27.105s17.448-15.434 27.105-21.295l-2.879-10.557c-7.512-27.543-33.391-45.979-61.877-44.08l-35.888 2.393-2.393 35.888c-1.899 28.486 16.537 54.365 44.08 61.877z" fill="#d191ff"/><path d="m331.093 378.963c9.657-5.861 18.769-12.959 27.105-21.295s15.434-17.448 21.295-27.105l10.557 2.879c27.543 7.512 45.979 33.391 44.08 61.877l-2.393 35.888-35.888 2.393c-28.486 1.899-54.365-16.537-61.877-44.08z" fill="#d191ff"/><path d="m132.946 330.563c5.861 9.657 12.959 18.769 21.295 27.105s17.448 15.434 27.105 21.295l-2.879 10.557c-7.512 27.543-33.391 45.979-61.877 44.08l-35.888-2.393-2.393-35.888c-1.899-28.486 16.537-54.365 44.08-61.877z" fill="#d191ff"/><path d="m331.093 133.037c9.657 5.861 18.769 12.959 27.105 21.295s15.434 17.448 21.295 27.105l10.557-2.879c27.543-7.512 45.979-33.391 44.08-61.877l-2.393-35.888-35.888-2.393c-28.486-1.899-54.365 16.537-61.877 44.08z" fill="#d191ff"/><path d="m116.328 290.443c-2.685-10.973-4.109-22.435-4.109-34.224s1.424-23.251 4.109-34.224l-9.501-5.429c-24.788-14.164-56.123-8.901-74.923 12.584l-23.684 27.07 23.685 27.068c18.8 21.486 50.135 26.749 74.923 12.584z" fill="#d191ff"/><path d="m396.111 290.004c2.685-10.973 4.109-22.435 4.109-34.224s-1.424-23.251-4.109-34.224l9.501-5.429c24.788-14.164 56.123-8.901 74.923 12.584l23.685 27.068-23.685 27.068c-18.8 21.486-50.135 26.749-74.923 12.584z" fill="#d191ff"/><g fill="#fefdff"><path d="m248 80h16v40h-16z"/><path d="m248 48h16v16h-16z"/><path d="m248 392h16v40h-16z"/><path d="m248 448h16v16h-16z"/><path d="m137.692 125.691h16v40h-16z" transform="matrix(.707 -.707 .707 .707 -60.347 145.691)"/><path d="m106.579 106.579h16v16h-16z" transform="matrix(.707 -.707 .707 .707 -47.46 114.579)"/><path d="m358.309 346.309h16v40h-16z" transform="matrix(.707 -.707 .707 .707 -151.73 366.309)"/><path d="m389.422 389.422h16v16h-16z" transform="matrix(.707 -.707 .707 .707 -164.617 397.421)"/><path d="m125.691 358.309h40v16h-40z" transform="matrix(.707 -.707 .707 .707 -216.347 210.309)"/><path d="m106.579 389.422h16v16h-16z" transform="matrix(.707 -.707 .707 .707 -247.46 197.421)"/><path d="m346.309 137.692h40v16h-40z" transform="matrix(.707 -.707 .707 .707 4.27 301.691)"/><path d="m389.422 106.579h16v16h-16z" transform="matrix(.707 -.707 .707 .707 35.383 314.579)"/><path d="m80 248h40v16h-40z"/><path d="m48 248h16v16h-16z"/><path d="m392 248h40v16h-40z"/><path d="m448 248h16v16h-16z"/></g><path d="m211.092 119.169c.87-.286 1.743-.564 2.619-.834.01-.003.021-.006.031-.01.211-.065.423-.129.634-.193.017-.005.034-.01.051-.015.857-.259 1.718-.51 2.581-.753.034-.01.067-.019.101-.029.207-.058.413-.116.62-.173h.002c.651-.18 1.305-.355 1.96-.526.027-.007.055-.014.082-.021.2-.052.4-.103.6-.155.042-.011.085-.022.127-.032.425-.108.85-.215 1.276-.319l-5.429-9.501c-3.112-5.445-5.285-11.207-6.556-17.082-3.086-.991-6.376-1.526-9.791-1.526-12.656 0-23.595 7.347-28.787 18.009 3.134 4.949 5.582 10.424 7.189 16.316l2.893 10.608c9.295-5.663 19.279-10.303 29.794-13.763.001 0 .002 0 .003-.001z" fill="#ffe68c"/><path d="m291.632 116.461c.197.05.394.101.591.152.032.008.064.017.096.025.647.169 1.293.342 1.937.52l.019.005c.203.056.407.113.61.17.038.011.076.021.114.032.858.242 1.713.491 2.564.748.022.007.044.013.066.02.208.063.416.126.623.19.016.005.031.009.046.014.871.268 1.738.544 2.602.828l.018.006c10.512 3.459 20.494 8.099 29.787 13.761l2.893-10.608c1.607-5.892 4.055-11.367 7.189-16.316-5.192-10.661-16.131-18.008-28.787-18.008-3.415 0-6.705.535-9.792 1.526-1.271 5.875-3.444 11.636-6.556 17.082l-5.429 9.501c.424.104.846.21 1.268.317.047.012.094.023.141.035z" fill="#ffe68c"/><path d="m392.838 211.113c.281.855.554 1.713.82 2.574.007.023.014.045.021.068.063.205.126.411.188.616.007.022.013.044.02.066.195.644.385 1.29.57 1.938.002.007.004.014.006.02.058.203.116.407.173.611l.029.103c.057.205.115.41.172.615.002.006.003.013.005.019.178.645.352 1.292.521 1.941.008.03.016.06.024.09.052.198.102.396.153.594.011.045.023.089.034.134.108.423.214.847.318 1.272l9.501-5.429c5.445-3.112 11.207-5.285 17.082-6.556.991-3.086 1.526-6.376 1.526-9.792 0-12.656-7.347-23.595-18.009-28.787-4.949 3.134-10.424 5.582-16.316 7.189l-10.608 2.893c5.66 9.29 10.298 19.268 13.757 29.777.004.017.008.03.013.044z" fill="#ffe68c"/><path d="m405.392 295.653-9.501-5.429c-.104.424-.21.846-.317 1.268-.012.047-.024.093-.036.14-.05.197-.101.394-.152.591-.008.032-.017.064-.025.096-.169.647-.342 1.293-.52 1.937l-.005.019c-.056.203-.113.407-.17.61-.011.039-.022.078-.033.116-.056.2-.113.4-.17.6-.004.013-.007.026-.011.039-.184.643-.373 1.284-.566 1.924-.007.022-.013.044-.02.066-.062.206-.125.411-.188.616-.007.023-.014.046-.021.068-.264.857-.536 1.711-.815 2.561-.007.021-.014.042-.021.064-3.459 10.505-8.095 20.479-13.754 29.766l10.608 2.893c5.892 1.607 11.368 4.055 16.316 7.189 10.662-5.192 18.009-16.131 18.009-28.787 0-3.415-.535-6.705-1.526-9.792-5.875-1.27-11.636-3.444-17.082-6.555z" fill="#ffe68c"/><path d="m300.875 392.842c-.85.28-1.704.551-2.561.815-.023.007-.046.014-.068.021-.205.063-.411.126-.616.188-.022.007-.044.013-.066.02-.64.193-1.281.382-1.924.566-.013.004-.026.007-.039.011-.2.057-.4.114-.6.17-.039.011-.078.022-.116.033-.203.057-.406.114-.61.17l-.019.005c-.644.178-1.29.351-1.937.52-.032.008-.064.017-.096.025-.197.051-.394.102-.591.152-.047.012-.093.024-.14.036-.422.107-.845.213-1.268.317l5.429 9.501c3.112 5.445 5.285 11.207 6.556 17.082 3.086.991 6.376 1.526 9.792 1.526 12.656 0 23.595-7.347 28.787-18.009-3.134-4.949-5.582-10.424-7.189-16.316l-2.893-10.608c-9.287 5.658-19.261 10.295-29.766 13.754-.023.007-.044.014-.065.021z" fill="#ffe68c"/><path d="m116.456 220.39c.054-.21.108-.421.162-.631.003-.012.006-.024.009-.036.23-.882.468-1.76.714-2.636l.016-.055c.248-.88.503-1.756.767-2.629.001-.005.003-.01.004-.015.066-.218.132-.435.199-.652.002-.006.004-.012.005-.017 3.534-11.482 8.467-22.357 14.6-32.424l-10.608-2.893c-5.892-1.607-11.367-4.055-16.316-7.189-10.661 5.192-18.008 16.131-18.008 28.787 0 3.415.535 6.705 1.526 9.792 5.875 1.271 11.636 3.444 17.082 6.556l9.501 5.429c.106-.435.216-.869.326-1.302.007-.029.014-.057.021-.085z" fill="#ffe68c"/><path d="m119.167 300.9c-.286-.87-.564-1.742-.834-2.619-.002-.006-.004-.012-.005-.018-.067-.217-.133-.434-.199-.652-.001-.005-.003-.01-.004-.015-.263-.871-.518-1.745-.765-2.622-.006-.023-.013-.045-.019-.068-.245-.872-.482-1.747-.711-2.626l-.011-.041c-.054-.209-.108-.418-.162-.627-.008-.03-.015-.06-.023-.09-.11-.432-.219-.865-.325-1.299l-9.501 5.429c-5.445 3.112-11.207 5.285-17.082 6.556-.991 3.087-1.526 6.377-1.526 9.792 0 12.656 7.347 23.595 18.009 28.787 4.949-3.134 10.424-5.582 16.316-7.189l10.608-2.893c-5.662-9.293-10.301-19.275-13.761-29.787-.002-.006-.004-.012-.005-.018z" fill="#ffe68c"/><path d="m220.373 395.54c-.2-.051-.4-.103-.6-.155-.027-.007-.054-.014-.082-.021-.655-.171-1.309-.346-1.96-.526-.001 0-.001 0-.002 0-.207-.057-.414-.115-.62-.173-.034-.01-.069-.019-.103-.029-.204-.057-.407-.115-.611-.173-.007-.002-.013-.004-.02-.006-.651-.187-1.301-.378-1.949-.574-.017-.005-.034-.01-.051-.015-.209-.063-.418-.127-.627-.191-.018-.005-.035-.011-.053-.016-.863-.266-1.723-.54-2.579-.821-.016-.005-.032-.011-.049-.016-10.507-3.459-20.484-8.097-29.773-13.756l-2.893 10.608c-1.607 5.892-4.055 11.367-7.189 16.316 5.193 10.661 16.132 18.008 28.788 18.008 3.415 0 6.705-.535 9.792-1.526 1.271-5.875 3.444-11.636 6.556-17.082l5.429-9.501c-.426-.104-.851-.211-1.276-.319-.043-.01-.085-.021-.128-.032z" fill="#ffe68c"/><circle cx="256" cy="256" fill="#ffd642" r="144"/><circle cx="256" cy="256" fill="#fffefa" r="104"/><ellipse cx="256" cy="192" fill="#d191ff" rx="24" ry="39.404"/><ellipse cx="256" cy="320" fill="#d191ff" rx="24" ry="39.404"/><ellipse cx="192" cy="256" fill="#d191ff" rx="39.404" ry="24"/><ellipse cx="319.702" cy="256" fill="#d191ff" rx="39.652" ry="24"/><circle cx="256" cy="256" fill="#ff593f" r="32"/></svg>