<svg id="Capa_1" enable-background="new 0 0 512 512" height="512" viewBox="0 0 512 512" width="512" xmlns="http://www.w3.org/2000/svg"><g><g><circle cx="256" cy="267" fill="#510e3c" r="245"/></g><g><circle cx="256" cy="232" fill="#3a082d" r="190"/></g><g><g><g><path d="m289.833 37.067c-18.538-12.666-26.673-32.119-26.746-32.297-1.165-2.882-3.963-4.762-7.072-4.77h-.02c-3.101 0-5.899 1.882-7.077 4.753-.08.195-8.215 19.648-26.751 32.315-20.196 13.801-33.539 22.918-30.248 41.56l15.058-2.657c-1.354-7.675 1.985-11.359 23.817-26.278 7.125-4.869 12.929-10.491 17.56-15.932v21.418h15.291v-21.419c4.631 5.441 10.436 11.064 17.561 15.933 21.832 14.919 25.17 18.603 23.816 26.278l15.058 2.657c3.29-18.643-10.051-27.76-30.247-41.561z" fill="#fcb332"/></g><g><path d="m305.022 436.03c1.354 7.675-1.984 11.359-23.816 26.278-7.125 4.869-12.93 10.491-17.561 15.933v-21.419h-15.291v21.419c-4.63-5.441-10.436-11.064-17.56-15.932-21.832-14.919-25.171-18.603-23.817-26.278l-15.058-2.657c-3.29 18.642 10.053 27.76 30.248 41.56 18.536 12.666 26.672 32.119 26.744 32.297 1.165 2.882 3.963 4.762 7.072 4.77h.02c3.101 0 5.899-1.883 7.077-4.753.08-.195 8.215-19.648 26.752-32.315 20.196-13.801 33.538-22.918 30.247-41.56z" fill="#fcb332"/></g><g><path d="m83.314 117.234c-20.238 9.72-41.152 7.038-41.341 7.013-3.083-.429-6.106 1.051-7.668 3.739-1.561 2.688-1.333 6.063.567 8.523.129.167 12.909 16.939 14.61 39.325 1.854 24.39 3.079 40.504 20.868 46.975l5.228-14.369c-7.324-2.664-8.845-7.398-10.849-33.765-.654-8.605-2.62-16.443-5.018-23.174l18.55 10.71 7.645-13.242-18.55-10.71c7.028-1.289 14.8-3.506 22.578-7.241 23.838-11.448 28.697-12.497 34.666-7.487l9.831-11.712c-14.5-12.171-29.067-5.175-51.117 5.415z" fill="#fcb332"/></g><g><path d="m462.517 336.167c-1.853-24.39-3.077-40.503-20.868-46.975l-5.228 14.369c7.325 2.665 8.846 7.399 10.849 33.765.654 8.604 2.62 16.443 5.018 23.173l-18.548-10.709-7.645 13.242 18.549 10.71c-7.028 1.289-14.8 3.505-22.578 7.241-23.834 11.447-28.696 12.498-34.664 7.487l-9.832 11.711c5.43 4.558 10.867 6.428 16.706 6.427 9.752 0 20.619-5.218 34.411-11.842 20.238-9.72 41.152-7.038 41.341-7.013 3.086.432 6.106-1.051 7.668-3.739 1.561-2.688 1.333-6.063-.567-8.523-.131-.166-12.911-16.938-14.612-39.324z" fill="#fcb332"/></g><g><path d="m89.934 380.983c-7.779-3.736-15.55-5.952-22.577-7.242l18.549-10.709-7.645-13.242-18.55 10.71c2.397-6.731 4.364-14.569 5.018-23.174 2.004-26.367 3.525-31.101 10.849-33.765l-5.228-14.369c-17.789 6.472-19.014 22.585-20.868 46.975-1.701 22.386-14.481 39.158-14.598 39.31-1.913 2.45-2.143 5.814-.595 8.51 1.547 2.696 4.583 4.187 7.664 3.769.209-.027 21.126-2.709 41.361 7.01 13.794 6.624 24.659 11.842 34.411 11.842 5.838 0 11.277-1.87 16.707-6.427l-9.831-11.712c-5.97 5.01-10.828 3.963-34.667-7.486z" fill="#fcb332"/></g><g><path d="m422.065 131.017c7.779 3.736 15.55 5.952 22.578 7.242l-18.549 10.709 7.645 13.242 18.548-10.709c-2.397 6.731-4.364 14.569-5.018 23.173-2.003 26.366-3.524 31.1-10.849 33.765l5.228 14.369c17.791-6.472 19.015-22.586 20.868-46.975 1.701-22.386 14.481-39.158 14.598-39.31 1.913-2.45 2.143-5.814.595-8.51-1.547-2.696-4.585-4.185-7.664-3.769-.208.028-21.125 2.71-41.361-7.01-22.05-10.589-36.616-17.585-51.116-5.415l9.832 11.711c5.968-5.01 10.829-3.959 34.665 7.487z" fill="#fcb332"/></g></g><g><g><path d="m177.783 52.811c-20.053-9.571-40.147-12.717-40.993-12.846-3.539-.542-6.977 1.445-8.278 4.779-.311.797-7.634 19.771-9.371 41.923-2.446 31.174 7.402 53.323 28.479 64.052l6.937-13.627c-30.867-15.711-19.141-63.774-13.84-80.767 17.37 3.907 64.853 17.783 63.026 52.37l15.269.806c1.249-23.618-13.009-43.221-41.229-56.69z" fill="#f94a38"/></g><g><path d="m364.378 361.281-6.937 13.627c30.867 15.711 19.141 63.774 13.84 80.767-17.37-3.907-64.853-17.783-63.026-52.37l-15.269-.806c-1.248 23.618 13.009 43.221 41.23 56.69 20.053 9.571 40.147 12.717 40.993 12.846.388.059.775.088 1.159.088 3.108 0 5.961-1.899 7.119-4.868.311-.797 7.634-19.771 9.371-41.923 2.445-31.173-7.402-53.322-28.48-64.051z" fill="#f94a38"/></g><g><path d="m102.302 227.603 8.332-12.821c-19.827-12.889-43.935-10.343-69.71 7.362-18.315 12.581-31.086 28.41-31.621 29.077-2.237 2.794-2.237 6.765 0 9.559.536.667 13.306 16.496 31.621 29.077 14.973 10.286 29.381 15.454 42.717 15.454 9.621 0 18.684-2.691 26.993-8.092l-8.332-12.821c-29.042 18.876-64.803-15.313-76.868-28.398 12.071-13.091 47.828-47.274 76.868-28.397z" fill="#f94a38"/></g><g><path d="m502.698 251.221c-.536-.667-13.306-16.496-31.621-29.077-25.778-17.706-49.882-20.25-69.711-7.361l8.334 12.82c29.038-18.877 64.814 15.325 76.873 28.405-12.046 13.1-47.756 47.319-76.873 28.391l-8.334 12.82c8.311 5.403 17.373 8.093 26.994 8.093 13.334 0 27.745-5.17 42.717-15.454 18.315-12.581 31.086-28.41 31.621-29.077 2.236-2.795 2.236-6.767 0-9.56z" fill="#f94a38"/></g><g><path d="m203.743 403.306c1.827 34.594-45.68 48.469-63.036 52.372-5.322-16.983-17.101-65.016 13.85-80.769l-6.937-13.627c-21.078 10.729-30.925 32.878-28.479 64.052 1.737 22.152 9.06 41.126 9.371 41.923 1.158 2.968 4.011 4.868 7.119 4.868.383 0 .771-.029 1.159-.088.846-.129 20.939-3.275 40.993-12.846 28.221-13.469 42.478-33.072 41.23-56.69z" fill="#f94a38"/></g><g><path d="m383.487 44.744c-1.301-3.334-4.742-5.32-8.278-4.779-.846.129-20.939 3.275-40.993 12.846-28.221 13.469-42.478 33.072-41.23 56.69l15.269-.806c-1.827-34.594 45.68-48.469 63.036-52.372 5.322 16.983 17.101 65.016-13.85 80.769l6.937 13.627c21.078-10.729 30.925-32.878 28.479-64.052-1.737-22.152-9.06-41.126-9.37-41.923z" fill="#f94a38"/></g></g><g><g><circle cx="256" cy="115.574" fill="#fcb332" r="12.742"/></g></g><g><g><circle cx="256" cy="396.426" fill="#fcb332" r="12.742"/></g></g><g><g><circle cx="165.927" cy="99.702" fill="#2fad4f" r="12.742"/></g></g><g><g><circle cx="346.072" cy="411.723" fill="#2fad4f" r="12.742"/></g></g><g><g><circle cx="75.854" cy="255.712" fill="#2fad4f" r="12.742"/></g></g><g><g><circle cx="436.145" cy="255.712" fill="#2fad4f" r="12.742"/></g></g><g><g><circle cx="165.927" cy="411.723" fill="#2fad4f" r="12.742"/></g></g><g><g><circle cx="346.072" cy="99.702" fill="#2fad4f" r="12.742"/></g></g><g><g><circle cx="134.387" cy="185.787" fill="#fcb332" r="12.742"/></g></g><g><g><circle cx="377.612" cy="326.213" fill="#fcb332" r="12.742"/></g></g><g><g><circle cx="134.387" cy="326.213" fill="#fcb332" r="12.742"/></g></g><g><g><circle cx="377.612" cy="185.787" fill="#fcb332" r="12.742"/></g></g><g><g><path d="m259.524 48.394c-2.21-1.148-4.838-1.148-7.048 0-.699.363-17.279 9.078-31.125 25.216-19.028 22.178-23.719 47.471-13.565 73.143l14.22-5.625c-7.998-20.22-4.406-39.479 10.676-57.241 8.373-9.861 18.191-16.667 23.319-19.858 5.132 3.194 14.947 9.999 23.32 19.858 15.082 17.762 18.674 37.02 10.676 57.241l14.22 5.624c10.153-25.673 5.463-50.965-13.566-73.143-13.848-16.138-30.429-24.852-31.127-25.215z" fill="#659bf2"/></g><g><path d="m289.995 370.871c7.998 20.221 4.406 39.479-10.676 57.241-8.373 9.861-18.192 16.667-23.32 19.858-5.132-3.194-14.947-9.999-23.319-19.858-15.082-17.762-18.674-37.02-10.676-57.241l-14.22-5.625c-10.154 25.673-5.463 50.965 13.565 73.143 13.846 16.139 30.427 24.853 31.125 25.216 1.105.574 2.315.861 3.524.861 1.21 0 2.419-.287 3.524-.861.699-.363 17.279-9.077 31.125-25.216 19.029-22.178 23.719-47.471 13.566-73.143z" fill="#659bf2"/></g><g><path d="m115.371 134.797c-20.9 3.922-36.737 13.924-37.401 14.348-2.098 1.339-3.413 3.617-3.523 6.104-.036.787-.778 19.503 6.274 39.563 9.693 27.568 29.252 44.277 56.562 48.319l2.24-15.126c-21.511-3.184-36.394-15.924-44.234-37.867-4.353-12.182-5.339-24.088-5.538-30.124 5.331-2.848 16.133-7.946 28.857-10.266 22.922-4.18 41.397 2.337 54.91 19.374l11.98-9.502c-17.159-21.629-41.41-30.213-70.127-24.823z" fill="#659bf2"/></g><g><path d="m374.718 268.869-2.24 15.126c21.511 3.184 36.393 15.924 44.234 37.866 4.355 12.188 5.34 24.101 5.539 30.134-5.245 2.811-15.818 7.81-28.443 10.179-23.113 4.337-41.73-2.155-55.326-19.297l-11.98 9.502c13.827 17.432 32.258 26.39 53.925 26.39 5.218 0 10.626-.52 16.201-1.566 20.9-3.922 36.737-13.924 37.4-14.348 2.099-1.339 3.414-3.617 3.524-6.104.036-.787.778-19.503-6.275-39.563-9.69-27.568-29.249-44.277-56.559-48.319z" fill="#659bf2"/></g><g><path d="m118.606 362.251c-12.733-2.322-23.542-7.426-28.866-10.27.188-5.947 1.145-17.602 5.406-29.721 7.801-22.186 22.73-35.061 44.376-38.265l-2.24-15.126c-27.31 4.042-46.868 20.751-56.562 48.319-7.052 20.06-6.31 38.776-6.274 39.563.111 2.487 1.426 4.764 3.523 6.104.664.424 16.501 10.425 37.401 14.348 5.576 1.046 10.979 1.566 16.2 1.566 21.665-.001 40.101-8.96 53.925-26.39l-11.98-9.502c-13.512 17.037-31.987 23.557-54.909 19.374z" fill="#659bf2"/></g><g><path d="m393.393 149.749c12.733 2.322 23.543 7.426 28.867 10.27-.188 5.948-1.145 17.603-5.406 29.721-7.801 22.186-22.73 35.061-44.376 38.265l2.24 15.126c27.31-4.042 46.868-20.751 56.561-48.319 7.053-20.06 6.311-38.776 6.275-39.563-.111-2.487-1.426-4.764-3.524-6.104-.663-.424-16.5-10.425-37.4-14.348-28.722-5.388-52.971 3.193-70.126 24.824l11.98 9.502c13.512-17.036 31.988-23.554 54.909-19.374z" fill="#659bf2"/></g></g><g><g><path d="m201.934 364.893 46.384-80.614-13.254-7.626-46.315 80.494c-.499-1.831-.936-3.795-1.23-5.893-2.022-14.414 3.122-27.387 15.287-38.559l-10.341-11.263c-20.043 18.405-21.988 38.408-20.088 51.946 2.026 14.443 8.819 24.593 9.107 25.019 1.314 1.937 3.442 3.166 5.777 3.335.123.009.921.062 2.252.062 4.201 0 13.7-.533 23.968-4.685 12.674-5.125 29.025-16.809 34.942-43.37l-14.925-3.325c-5.152 23.12-20.232 31.488-31.564 34.479z" fill="#2fad4f"/></g><g><path d="m213.48 134.891c-13.522-5.468-25.706-4.659-26.22-4.623-2.334.169-4.463 1.398-5.777 3.335-.288.425-7.08 10.576-9.106 25.019-1.899 13.538.044 33.541 20.086 51.946l10.343-11.262c-17.415-15.992-17.154-33.202-14.092-44.512l46.35 80.554 13.254-7.626-46.382-80.61c11.338 2.992 26.411 11.362 31.561 34.474l14.925-3.326c-5.919-26.561-22.269-38.244-34.942-43.369z" fill="#2fad4f"/></g><g><path d="m180.303 273.719c-22.579 7.094-37.359-1.761-45.618-10.074h92.62v-15.291h-92.549c1.341-1.355 2.832-2.722 4.51-4.033 11.473-8.958 25.28-10.991 41.037-6.041l4.583-14.588c-25.962-8.156-44.255.163-55.031 8.577-11.495 8.976-16.89 19.933-17.114 20.396-1.02 2.106-1.02 4.564 0 6.67.224.462 5.619 11.42 17.114 20.396 7.66 5.982 19.121 11.915 34.434 11.915 6.227 0 13.091-.981 20.596-3.338z" fill="#2fad4f"/></g><g><path d="m319.535 301.432-10.341 11.263c17.446 16.02 17.153 33.264 14.076 44.573l-46.621-80.476-13.23 7.665 46.586 80.415c-11.332-3.005-26.361-11.385-31.502-34.458l-14.925 3.325c5.917 26.561 22.268 38.245 34.943 43.37 10.268 4.152 19.768 4.685 23.968 4.685 1.33 0 2.128-.053 2.252-.062 2.334-.169 4.463-1.398 5.777-3.335.288-.425 7.08-10.575 9.106-25.018 1.898-13.54-.046-33.542-20.089-51.947z" fill="#2fad4f"/></g><g><path d="m310.066 147.108-46.384 80.614 13.254 7.626 46.348-80.552c3.063 11.316 3.32 28.521-14.092 44.509l10.343 11.263c20.043-18.406 21.987-38.408 20.087-51.946-2.026-14.443-8.818-24.593-9.106-25.019-1.314-1.937-3.442-3.166-5.777-3.335-.512-.036-12.699-.844-26.22 4.623-12.675 5.125-29.025 16.809-34.943 43.369l14.925 3.326c5.153-23.121 20.233-31.488 31.565-34.478z" fill="#2fad4f"/></g><g><path d="m399.257 252.665c-.224-.462-5.619-11.42-17.114-20.396-10.774-8.413-29.067-16.731-55.03-8.577l4.583 14.588c22.555-7.084 37.329 1.746 45.594 10.052l-92.938-.137-.022 15.291 92.934.137c-1.347 1.362-2.845 2.738-4.532 4.056-11.472 8.959-25.279 10.99-41.037 6.04l-4.583 14.588c7.506 2.358 14.368 3.339 20.596 3.338 15.312-.001 26.775-5.934 34.435-11.915 11.495-8.976 16.89-19.933 17.114-20.396 1.02-2.105 1.02-4.563 0-6.669z" fill="#2fad4f"/></g></g><g><path d="m334.864 275.432c-5.764-8.376-12.563-14.884-20.201-19.441 7.635-4.557 14.436-11.046 20.201-19.423 9.168-13.321 12.486-26.733 12.622-27.297.961-3.965-1.361-7.985-5.274-9.136-.557-.164-13.83-3.995-29.951-2.717-10.134.804-19.154 3.445-26.916 7.776-.129-8.89-2.37-18.028-6.743-27.209-6.953-14.6-16.908-24.179-17.329-24.579-2.953-2.814-7.596-2.814-10.548 0-.421.4-10.376 9.979-17.329 24.58-4.372 9.181-6.613 18.318-6.742 27.208-7.762-4.331-16.782-6.972-26.916-7.776-16.12-1.277-29.393 2.553-29.951 2.717-3.913 1.151-6.235 5.171-5.274 9.136.136.564 3.454 13.976 12.622 27.297 5.763 8.375 12.562 14.864 20.194 19.42-7.635 4.558-14.429 11.068-20.194 19.445-9.168 13.321-12.486 26.732-12.622 27.297-.961 3.965 1.361 7.985 5.274 9.136.478.14 10.304 2.978 23.26 2.978 2.153 0 4.393-.079 6.691-.261 10.134-.804 19.154-3.445 26.916-7.776.129 8.89 2.37 18.027 6.742 27.208 6.953 14.6 16.908 24.179 17.329 24.579 1.476 1.407 3.375 2.111 5.274 2.111s3.798-.704 5.274-2.111c.421-.4 10.376-9.979 17.329-24.579 4.372-9.181 6.613-18.319 6.743-27.209 7.762 4.331 16.782 6.973 26.916 7.776 2.299.182 4.537.261 6.691.261 12.953 0 22.782-2.838 23.26-2.978 3.913-1.151 6.235-5.171 5.274-9.136-.136-.564-3.454-13.975-12.622-27.297zm-55.217 6.173c-.846-1.731-1.783-3.442-2.817-5.13l-6.658 4.074-6.856 3.728c.922 1.696 1.927 3.303 2.973 4.864 10.118 21.913-2.48 42.615-10.289 52.449-7.816-9.842-20.409-30.543-10.288-52.454 1.045-1.56 2.049-3.165 2.97-4.859l-6.847-3.723-6.666-4.08c-1.033 1.689-1.971 3.399-2.816 5.13-13.933 19.593-38.084 19.033-50.477 17.191 4.61-11.677 16.223-32.894 40.209-35.124 1.367.093 2.745.151 4.142.151.54 0 1.083-.007 1.626-.021l-.199-7.801.199-7.802c-1.977-.051-3.925-.008-5.844.124-23.933-2.269-35.53-23.46-40.132-35.116 12.404-1.845 36.547-2.398 50.477 17.191.846 1.73 1.783 3.441 2.816 5.129l6.666-4.08 6.847-3.723c-.921-1.694-1.925-3.299-2.97-4.859-10.122-21.915 2.476-42.619 10.286-52.454 7.816 9.841 20.407 30.54 10.291 52.45-1.046 1.561-2.051 3.168-2.973 4.863l6.856 3.728 6.658 4.074c1.033-1.689 1.971-3.399 2.816-5.13 13.934-19.592 38.08-19.032 50.477-17.191-4.607 11.667-16.165 32.846-40.139 35.119-1.918-.133-3.864-.176-5.839-.125l.199 7.802-.199 7.802c.545.014 1.085.021 1.626.021 1.396 0 2.774-.059 4.14-.151 23.987 2.23 35.604 23.454 40.211 35.123-12.406 1.843-36.546 2.397-50.476-17.19z" fill="#fcb332"/></g><g><g><path d="m255.999 291.646c-19.655 0-35.646-15.991-35.646-35.646s15.991-35.646 35.646-35.646 35.646 15.991 35.646 35.646-15.99 35.646-35.646 35.646zm0-56.001c-11.224 0-20.355 9.131-20.355 20.355s9.131 20.355 20.355 20.355 20.355-9.131 20.355-20.355-9.13-20.355-20.355-20.355z" fill="#f94a38"/></g></g></g></g></svg>