<?xml version="1.0" encoding="UTF-8"?>
<svg xmlns="http://www.w3.org/2000/svg" xmlns:xlink="http://www.w3.org/1999/xlink" width="512" height="512" viewBox="0 0 60 60" version="1.1"><!-- Generator: Sketch 51.3 (57544) - http://www.bohemiancoding.com/sketch --><title>016 - Chakra</title><desc>Created with Sketch.</desc><defs/><g id="Page-1" stroke="none" stroke-width="1" fill="none" fill-rule="evenodd"><g id="016---Chakra" fill-rule="nonzero"><path d="M34.67,15.75 C34.1458632,15.5717369 33.6115862,15.4248107 33.07,15.31 C31.0408347,14.8966664 28.9491653,14.8966664 26.92,15.31 C26.8061573,13.1586584 25.9388251,11.1160024 24.47,9.54 C24.754597,8.57651281 25.2813517,7.7020311 26,7 C29.15,3.85 29.82,1.94 29.96,1.27 C30.1,1.94 30.77,3.85 33.92,7 C34.6310441,7.70015655 35.15682,8.56614024 35.45,9.52 C35.9291079,11.6238565 35.6529975,13.8292 34.67,15.75 Z" id="Shape" fill="#E8EDFC"/><path d="M26.92,15.31 C26.3784138,15.4248107 25.8441368,15.5717369 25.32,15.75 C24.3388393,16.0710461 23.3937498,16.4933201 22.5,17.01 C21.6047559,17.5353133 20.7639545,18.1483279 19.99,18.84 C18.8286427,17.0208158 17.0553124,15.6766314 14.99,15.05 C14.7524337,14.0720112 14.7696487,13.049438 15.04,12.08 C16.18,7.8 15.82,5.82 15.6,5.15 C16.06,5.66 17.6,6.97 21.89,8.12 C22.8559949,8.36817012 23.7435208,8.85665339 24.47,9.54 C25.9388251,11.1160024 26.8061573,13.1586584 26.92,15.31 Z" id="Shape" fill="#E8EDFC"/><path d="M19.99,18.84 C19.5762105,19.2021402 19.1885751,19.5931173 18.83,20.01 L18.82,20.01 C17.434806,21.5483428 16.3888122,23.3609444 15.75,25.33 C13.8292,24.3470025 11.6238565,24.0708921 9.52,24.55 C8.82664503,23.8238432 8.33088481,22.9321634 8.08,21.96 C6.93,17.67 5.62,16.13 5.11,15.67 C5.78,15.89 7.76,16.25 12.04,15.11 C13.0025597,14.8416855 14.0173264,14.8210461 14.99,15.05 C17.0553124,15.6766314 18.8286427,17.0208158 19.99,18.84 Z" id="Shape" fill="#E8EDFC"/><path d="M15.31,26.93 C14.8966664,28.9591653 14.8966664,31.0508347 15.31,33.08 C13.1586584,33.1938427 11.1160024,34.0611749 9.54,35.53 C8.57651281,35.245403 7.7020311,34.7186483 7,34 C3.85,30.85 1.94,30.18 1.27,30.04 C1.94,29.9 3.85,29.23 7,26.08 C7.70015655,25.3689559 8.56614024,24.84318 9.52,24.55 C11.6238565,24.0708921 13.8292,24.3470025 15.75,25.33 C15.5717369,25.8541368 15.4248107,26.3884138 15.31,26.93 Z" id="Shape" fill="#E8EDFC"/><path d="M18.84,40.01 C17.0208158,41.1713573 15.6766314,42.9446876 15.05,45.01 C14.0720112,45.2475663 13.049438,45.2303513 12.08,44.96 C7.8,43.82 5.82,44.18 5.15,44.4 C5.66,43.94 6.97,42.4 8.12,38.11 C8.36817012,37.1440051 8.85665339,36.2564792 9.54,35.53 C11.1160024,34.0611749 13.1586584,33.1938427 15.31,33.08 C15.4248107,33.6215862 15.5717369,34.1558632 15.75,34.68 C16.0667851,35.6627992 16.4892567,36.608331 17.01,37.5 C17.5285382,38.3996671 18.1420446,39.2411431 18.84,40.01 Z" id="Shape" fill="#E8EDFC"/><path d="M24.55,50.48 C23.8238432,51.173355 22.9321634,51.6691152 21.96,51.92 C17.67,53.07 16.13,54.38 15.67,54.89 C15.89,54.22 16.25,52.24 15.11,47.96 C14.8416855,46.9974403 14.8210461,45.9826736 15.05,45.01 C15.6766314,42.9446876 17.0208158,41.1713573 18.84,40.01 C19.2021402,40.4237895 19.5931173,40.8114249 20.01,41.17 L20.01,41.18 C21.5483428,42.565194 23.3609444,43.6111878 25.33,44.25 C24.3470025,46.1708 24.0708921,48.3761435 24.55,50.48 Z" id="Shape" fill="#E8EDFC"/><path d="M35.53,50.46 C35.245403,51.4234872 34.7186483,52.2979689 34,53 C30.85,56.15 30.18,58.06 30.04,58.73 C29.9,58.06 29.23,56.15 26.08,53 C25.3689559,52.2998434 24.84318,51.4338598 24.55,50.48 C24.0708921,48.3761435 24.3470025,46.1708 25.33,44.25 C25.8541368,44.4282631 26.3884138,44.5751893 26.93,44.69 C28.9591653,45.1033336 31.0508347,45.1033336 33.08,44.69 C33.1938427,46.8413416 34.0611749,48.8839976 35.53,50.46 Z" id="Shape" fill="#E8EDFC"/><path d="M44.96,47.92 C43.82,52.2 44.18,54.18 44.4,54.85 C43.4771134,53.9739428 42.3750803,53.3086287 41.17,52.9 C40.1738272,52.4923045 39.1515556,52.1515473 38.11,51.88 C37.1440051,51.6318299 36.2564792,51.1433466 35.53,50.46 C34.0611749,48.8839976 33.1938427,46.8413416 33.08,44.69 C33.6215862,44.5751893 34.1558632,44.4282631 34.68,44.25 C35.6611607,43.9289539 36.6062502,43.5066799 37.5,42.99 C37.72,42.86 37.95,42.72 38.16,42.58 L38.17,42.58 C38.8168077,42.1517045 39.4317493,41.6771299 40.01,41.16 C41.1713573,42.9791842 42.9446876,44.3233686 45.01,44.95 C45.2475663,45.9279888 45.2303513,46.950562 44.96,47.92 Z" id="Shape" fill="#CAD9FC"/><path d="M54.89,44.33 C53.8617614,44.0633006 52.7899701,44.0088604 51.74,44.17 C51.64,44.18 51.53,44.19 51.42,44.21 L51.41,44.21 C50.2450796,44.3530051 49.0920581,44.5802673 47.96,44.89 C46.9974403,45.1583145 45.9826736,45.1789539 45.01,44.95 C44.9621274,44.9413204 44.915232,44.9279217 44.87,44.91 C42.8659356,44.2580247 41.1489371,42.9331802 40.01,41.16 C40.4237895,40.7978598 40.8114249,40.4068827 41.17,39.99 L41.18,39.99 C41.8682462,39.2251726 42.47486,38.3906596 42.99,37.5 C43.3492315,36.8731412 43.6633596,36.2214925 43.93,35.55 C44.05,35.26 44.15,34.97 44.25,34.67 C45.1345701,35.0848996 46.0689375,35.3840316 47.03,35.56 C47.2371195,35.6094666 47.4477431,35.6428989 47.66,35.66 C48.6044792,35.7832523 49.5641937,35.7117842 50.48,35.45 C51.173355,36.1761568 51.6691152,37.0678366 51.92,38.04 C53.07,42.33 54.38,43.87 54.89,44.33 Z" id="Shape" fill="#CAD9FC"/><path d="M58.73,29.96 C58.06,30.1 56.15,30.77 53,33.92 C52.2998434,34.6310441 51.4338598,35.15682 50.48,35.45 C49.3557295,35.7645536 48.1720251,35.8022949 47.03,35.56 C46.0689375,35.3840316 45.1345701,35.0848996 44.25,34.67 C44.4282631,34.1458632 44.5751893,33.6115862 44.69,33.07 C45.1033336,31.0408347 45.1033336,28.9491653 44.69,26.92 C46.3374824,26.7981875 47.9318887,26.2838628 49.34,25.42 C49.7469632,25.1452601 50.122545,24.8266863 50.46,24.47 C51.4234872,24.754597 52.2979689,25.2813517 53,26 C56.15,29.15 58.06,29.82 58.73,29.96 Z" id="Shape" fill="#CAD9FC"/><path d="M54.85,15.6 C54.34,16.06 53.03,17.6 51.88,21.89 C51.6318299,22.8559949 51.1433466,23.7435208 50.46,24.47 C48.8839976,25.9388251 46.8413416,26.8061573 44.69,26.92 C44.64,26.71 44.6,26.51 44.54,26.31 C44.4599074,25.9753693 44.3631197,25.6449561 44.25,25.32 C43.9289539,24.3388393 43.5066799,23.3937498 42.99,22.5 C42.4646867,21.6047559 41.8516721,20.7639545 41.16,19.99 C42.962179,18.8350742 44.3003656,17.0826871 44.94,15.04 C44.94,15.02 44.95,15.01 44.95,14.99 C45.9279888,14.7524337 46.950562,14.7696487 47.92,15.04 C49.0520581,15.3497327 50.2050796,15.5769949 51.37,15.72 L51.38,15.72 C51.49,15.74 51.6,15.75 51.7,15.76 C52.7499701,15.9211396 53.8217614,15.8666994 54.85,15.6 Z" id="Shape" fill="#CAD9FC"/><path d="M44.95,14.99 C44.3233686,17.0553124 42.9791842,18.8286427 41.16,19.99 C40.7978598,19.5762105 40.4068827,19.1885751 39.99,18.83 L39.99,18.82 C39.92,18.76 39.86,18.7 39.79,18.64 C39.075647,18.0309437 38.3093941,17.4855323 37.5,17.01 C36.6027751,16.4932694 35.6543658,16.0710095 34.67,15.75 C35.6529975,13.8292 35.9291079,11.6238565 35.45,9.52 C36.1761568,8.82664503 37.0678366,8.33088481 38.04,8.08 C39.0815556,7.8084527 40.1038272,7.4676955 41.1,7.06 C42.3050803,6.65137127 43.4071134,5.98605719 44.33,5.11 C44.11,5.78 43.75,7.76 44.89,12.04 C45.1583145,13.0025597 45.1789539,14.0173264 44.95,14.99 Z" id="Shape" fill="#CAD9FC"/><path d="M41.96,47.92 C41.490727,49.5407177 41.225347,51.2136194 41.17,52.9 C40.1738272,52.4923045 39.1515556,52.1515473 38.11,51.88 C37.1440051,51.6318299 36.2564792,51.1433466 35.53,50.46 C34.0611749,48.8839976 33.1938427,46.8413416 33.08,44.69 C33.6215862,44.5751893 34.1558632,44.4282631 34.68,44.25 C35.6611607,43.9289539 36.6062502,43.5066799 37.5,42.99 C37.72,42.86 37.95,42.72 38.16,42.58 L38.17,42.58 C39.1891918,43.7303059 40.5248531,44.5546594 42.01,44.95 C42.2475663,45.9279888 42.2303513,46.950562 41.96,47.92 Z" id="Shape" fill="#E8EDFC"/><path d="M51.89,44.33 C51.7359679,44.2803111 51.5789993,44.240234 51.42,44.21 L51.41,44.21 C50.45,44.03 48.49,43.95 44.96,44.89 C44.9312484,44.9013906 44.9008698,44.9081413 44.87,44.91 C42.8659356,44.2580247 41.1489371,42.9331802 40.01,41.16 C40.4237895,40.7978598 40.8114249,40.4068827 41.17,39.99 L41.18,39.99 C41.8682462,39.2251726 42.47486,38.3906596 42.99,37.5 C43.3492315,36.8731412 43.6633596,36.2214925 43.93,35.55 C44.9514304,35.7685389 46.007181,35.7719446 47.03,35.56 C47.18,35.53 47.33,35.49 47.48,35.45 C47.54,35.52 47.61,35.59 47.66,35.66 C48.2619373,36.342781 48.6937081,37.1583479 48.92,38.04 C49.96,41.93 51.13,43.56 51.74,44.17 C51.784889,44.2279046 51.8351088,44.2814725 51.89,44.33 Z" id="Shape" fill="#E8EDFC"/><path d="M55.73,29.96 C55.06,30.1 53.15,30.77 50,33.92 C49.2998434,34.6310441 48.4338598,35.15682 47.48,35.45 C47.33,35.49 47.18,35.53 47.03,35.56 C46.0689375,35.3840316 45.1345701,35.0848996 44.25,34.67 C44.4282631,34.1458632 44.5751893,33.6115862 44.69,33.07 C45.1033336,31.0408347 45.1033336,28.9491653 44.69,26.92 C46.3374824,26.7981875 47.9318887,26.2838628 49.34,25.42 C49.5721801,25.5990165 49.7926331,25.7927479 50,26 C53.15,29.15 55.06,29.82 55.73,29.96 Z" id="Shape" fill="#E8EDFC"/><path d="M51.85,15.6 C51.7951088,15.6485275 51.744889,15.7020954 51.7,15.76 C51.09,16.37 49.92,18 48.88,21.89 C48.6318299,22.8559949 48.1433466,23.7435208 47.46,24.47 C46.6461923,25.3060159 45.6453656,25.9366739 44.54,26.31 C44.4599074,25.9753693 44.3631197,25.6449561 44.25,25.32 C43.9289539,24.3388393 43.5066799,23.3937498 42.99,22.5 C42.4646867,21.6047559 41.8516721,20.7639545 41.16,19.99 C42.962179,18.8350742 44.3003656,17.0826871 44.94,15.04 C48.46,15.98 50.42,15.9 51.37,15.72 L51.38,15.72 C51.5389993,15.689766 51.6959679,15.6496889 51.85,15.6 Z" id="Shape" fill="#E8EDFC"/><path d="M41.95,14.99 C41.5833479,16.3838226 40.8353425,17.6478133 39.79,18.64 C39.075647,18.0309437 38.3093941,17.4855323 37.5,17.01 C36.6027751,16.4932694 35.6543658,16.0710095 34.67,15.75 C35.6529975,13.8292 35.9291079,11.6238565 35.45,9.52 C36.1761568,8.82664503 37.0678366,8.33088481 38.04,8.08 C39.0815556,7.8084527 40.1038272,7.4676955 41.1,7.06 C41.155347,8.74638062 41.420727,10.4192823 41.89,12.04 C42.1583145,13.0025597 42.1789539,14.0173264 41.95,14.99 Z" id="Shape" fill="#E8EDFC"/><path d="M45,30 C44.9989228,31.0310913 44.8950762,32.059508 44.69,33.07 C44.5751893,33.6115862 44.4282631,34.1458632 44.25,34.67 C43.9289905,35.6543658 43.5067306,36.6027751 42.99,37.5 C42.47486,38.3906596 41.8682462,39.2251726 41.18,39.99 L41.17,39.99 C40.8114249,40.4068827 40.4237895,40.7978598 40.01,41.16 C39.2360455,41.8516721 38.3952441,42.4646867 37.5,42.99 C36.6062502,43.5066799 35.6611607,43.9289539 34.68,44.25 C34.1558632,44.4282631 33.6215862,44.5751893 33.08,44.69 C32.0662078,44.8955732 31.0344248,44.9994215 30,45 C29.5,45 29,44.97 28.51,44.93 C27.98,44.87 27.45,44.79 26.93,44.69 C26.3884138,44.5751893 25.8541368,44.4282631 25.33,44.25 C23.3609444,43.6111878 21.5483428,42.565194 20.01,41.18 L20.01,41.17 C19.5931173,40.8114249 19.2021402,40.4237895 18.84,40.01 C18.1420446,39.2411431 17.5285382,38.3996671 17.01,37.5 C16.4892567,36.608331 16.0667851,35.6627992 15.75,34.68 C15.5717369,34.1558632 15.4248107,33.6215862 15.31,33.08 C14.8966664,31.0508347 14.8966664,28.9591653 15.31,26.93 C15.4248107,26.3884138 15.5717369,25.8541368 15.75,25.33 C16.3888122,23.3609444 17.434806,21.5483428 18.82,20.01 L18.83,20.01 C19.1885751,19.5931173 19.5762105,19.2021402 19.99,18.84 C20.7639545,18.1483279 21.6047559,17.5353133 22.5,17.01 C23.3937498,16.4933201 24.3388393,16.0710461 25.32,15.75 C25.8441368,15.5717369 26.3784138,15.4248107 26.92,15.31 C27.44,15.21 27.97,15.13 28.5,15.08 C28.9983178,15.0278881 29.4989662,15.0011868 30,15 C31.0310913,15.0010772 32.059508,15.1049238 33.07,15.31 C33.6115862,15.4248107 34.1458632,15.5717369 34.67,15.75 C35.6543658,16.0710095 36.6027751,16.4932694 37.5,17.01 C38.3906596,17.52514 39.2251726,18.1317538 39.99,18.82 L39.99,18.83 C40.4068827,19.1885751 40.7978598,19.5762105 41.16,19.99 C41.8516721,20.7639545 42.4646867,21.6047559 42.99,22.5 C43.5066799,23.3937498 43.9289539,24.3388393 44.25,25.32 C44.4282631,25.8441368 44.5751893,26.3784138 44.69,26.92 C44.8955732,27.9337922 44.9994215,28.9655752 45,30 Z" id="Shape" fill="#7FACFA"/><path d="M42,30 C41.9989228,31.0310913 41.8950762,32.059508 41.69,33.07 C41.5751893,33.6115862 41.4282631,34.1458632 41.25,34.67 C40.9289905,35.6543658 40.5067306,36.6027751 39.99,37.5 C39.47486,38.3906596 38.8682462,39.2251726 38.18,39.99 L38.17,39.99 C37.8114249,40.4068827 37.4237895,40.7978598 37.01,41.16 C36.2360455,41.8516721 35.3952441,42.4646867 34.5,42.99 C33.6062502,43.5066799 32.6611607,43.9289539 31.68,44.25 C31.1558632,44.4282631 30.6215862,44.5751893 30.08,44.69 C29.57,44.79 29.04,44.87 28.51,44.93 C27.98,44.87 27.45,44.79 26.93,44.69 C26.3884138,44.5751893 25.8541368,44.4282631 25.33,44.25 C23.3609444,43.6111878 21.5483428,42.565194 20.01,41.18 L20.01,41.17 C19.5931173,40.8114249 19.2021402,40.4237895 18.84,40.01 C18.1420446,39.2411431 17.5285382,38.3996671 17.01,37.5 C16.4892567,36.608331 16.0667851,35.6627992 15.75,34.68 C15.5717369,34.1558632 15.4248107,33.6215862 15.31,33.08 C14.8966664,31.0508347 14.8966664,28.9591653 15.31,26.93 C15.4248107,26.3884138 15.5717369,25.8541368 15.75,25.33 C16.3888122,23.3609444 17.434806,21.5483428 18.82,20.01 L18.83,20.01 C19.1885751,19.5931173 19.5762105,19.2021402 19.99,18.84 C20.7639545,18.1483279 21.6047559,17.5353133 22.5,17.01 C23.3937498,16.4933201 24.3388393,16.0710461 25.32,15.75 C25.8441368,15.5717369 26.3784138,15.4248107 26.92,15.31 C27.44,15.21 27.97,15.13 28.5,15.08 C29.03,15.13 29.56,15.21 30.07,15.31 C30.6115862,15.4248107 31.1458632,15.5717369 31.67,15.75 C32.6543658,16.0710095 33.6027751,16.4932694 34.5,17.01 C35.3906596,17.52514 36.2251726,18.1317538 36.99,18.82 L36.99,18.83 C37.4068827,19.1885751 37.7978598,19.5762105 38.16,19.99 C38.8516721,20.7639545 39.4646867,21.6047559 39.99,22.5 C40.5066799,23.3937498 40.9289539,24.3388393 41.25,25.32 C41.4282631,25.8441368 41.5751893,26.3784138 41.69,26.92 C41.8955732,27.9337922 41.9994215,28.9655752 42,30 Z" id="Shape" fill="#A4C2F7"/><circle id="Oval" fill="#E8EDFC" cx="30" cy="30" r="7"/><path d="M18.9,52.933 C18.8457645,51.2489566 18.5810419,49.578315 18.112,47.96 C17.8436855,46.9974403 17.8230461,45.9826736 18.052,45.01 C17.0740112,45.2475663 16.051438,45.2303513 15.082,44.96 C11.556,44.021 9.608,44.102 8.65,44.281 C9.80871881,44.42526 10.9556422,44.6521717 12.082,44.96 C13.051438,45.2303513 14.0740112,45.2475663 15.052,45.01 C14.8230461,45.9826736 14.8436855,46.9974403 15.112,47.96 C16.252,52.24 15.892,54.22 15.672,54.89 C16.594793,54.0131833 17.6958191,53.3456777 18.9,52.933 Z" id="Shape" fill="#FFFFFF"/><path d="M5.15,44.4 C6.18313634,44.1364193 7.25853907,44.0820202 8.313,44.24 C8.903,43.628 10.076,42.004 11.12,38.11 C11.3681701,37.1440051 11.8566534,36.2564792 12.54,35.53 C11.5765128,35.245403 10.7020311,34.7186483 10,34 C6.85,30.85 4.94,30.18 4.27,30.04 C4.94,29.9 6.85,29.23 10,26.08 C10.7001566,25.3689559 11.5661402,24.84318 12.52,24.55 C11.826645,23.8238432 11.3308848,22.9321634 11.08,21.96 C10.036,18.066 8.863,16.442 8.273,15.83 C7.21853907,15.9879798 6.14313634,15.9335807 5.11,15.67 C5.62,16.13 6.93,17.67 8.08,21.96 C8.33088481,22.9321634 8.82664503,23.8238432 9.52,24.55 C8.56614024,24.84318 7.70015655,25.3689559 7,26.08 C3.85,29.23 1.94,29.9 1.27,30.04 C1.94,30.18 3.85,30.85 7,34 C7.7020311,34.7186483 8.57651281,35.245403 9.54,35.53 C8.85665339,36.2564792 8.36817012,37.1440051 8.12,38.11 C6.97,42.4 5.66,43.94 5.15,44.4 Z" id="Shape" fill="#FFFFFF"/><path d="M12.04,15.11 C10.9137518,15.4180631 9.76678742,15.6446487 8.608,15.788 C9.566,15.968 11.514,16.049 15.04,15.11 C16.0025597,14.8416855 17.0173264,14.8210461 17.99,15.05 C17.7524337,14.0720112 17.7696487,13.049438 18.04,12.08 C18.5090419,10.461685 18.7737645,8.79104343 18.828,7.107 C17.6238191,6.69432232 16.522793,6.02681669 15.6,5.15 C15.82,5.82 16.18,7.8 15.04,12.08 C14.7696487,13.049438 14.7524337,14.0720112 14.99,15.05 C14.0173264,14.8210461 13.0025597,14.8416855 12.04,15.11 Z" id="Shape" fill="#FFFFFF"/><path d="M30,16 C29.4477153,16 29,15.5522847 29,15 L29,9 C29,8.44771525 29.4477153,8 30,8 C30.5522847,8 31,8.44771525 31,9 L31,15 C31,15.5522847 30.5522847,16 30,16 Z" id="Shape" fill="#A4C2F7"/><path d="M22.5,18.01 C22.1423863,18.0103484 21.8118068,17.8197028 21.633,17.51 L18.633,12.31 C18.3613097,11.83214 18.5262584,11.2245795 19.0023057,10.9497255 C19.478353,10.6748714 20.0869942,10.8357864 20.365,11.31 L23.365,16.51 C23.5435415,16.8192425 23.5436393,17.2002222 23.3652566,17.5095563 C23.1868739,17.8188904 22.8570824,18.009634 22.5,18.01 Z" id="Shape" fill="#A4C2F7"/><path d="M17.009,23.5 C16.8334113,23.5003718 16.6608701,23.4541308 16.509,23.366 L11.309,20.366 C10.9970492,20.1886384 10.8040468,19.8577268 10.8032579,19.4988817 C10.802469,19.1400366 10.9940146,18.8082796 11.3051826,18.6295481 C11.6163505,18.4508167 11.9994296,18.4525156 12.309,18.634 L17.509,21.634 C17.9009413,21.8603139 18.0920208,22.3216562 17.9748809,22.7588223 C17.8577411,23.1959884 17.4615881,23.4999801 17.009,23.5 Z" id="Shape" fill="#A4C2F7"/><path d="M15,31 L9,31 C8.44771525,31 8,30.5522847 8,30 C8,29.4477153 8.44771525,29 9,29 L15,29 C15.5522847,29 16,29.4477153 16,30 C16,30.5522847 15.5522847,31 15,31 Z" id="Shape" fill="#A4C2F7"/><path d="M11.814,41.5 C11.3614119,41.4999801 10.9652589,41.1959884 10.8481191,40.7588223 C10.7309792,40.3216562 10.9220587,39.8603139 11.314,39.634 L16.514,36.634 C16.8235704,36.4525156 17.2066495,36.4508167 17.5178174,36.6295481 C17.8289854,36.8082796 18.020531,37.1400366 18.0197421,37.4988817 C18.0189532,37.8577268 17.8259508,38.1886384 17.514,38.366 L12.314,41.366 C12.1621299,41.4541308 11.9895887,41.5003718 11.814,41.5 Z" id="Shape" fill="#A4C2F7"/><path d="M19.5,49.187 C19.1429176,49.186634 18.8131261,48.9958904 18.6347434,48.6865563 C18.4563607,48.3772222 18.4564585,47.9962425 18.635,47.687 L21.635,42.487 C21.9130058,42.0127864 22.521647,41.8518714 22.9976943,42.1267255 C23.4737416,42.4015795 23.6386903,43.00914 23.367,43.487 L20.367,48.687 C20.1881932,48.9967028 19.8576137,49.1873484 19.5,49.187 Z" id="Shape" fill="#A4C2F7"/><path d="M30,52 C29.4477153,52 29,51.5522847 29,51 L29,45 C29,44.4477153 29.4477153,44 30,44 C30.5522847,44 31,44.4477153 31,45 L31,51 C31,51.5522847 30.5522847,52 30,52 Z" id="Shape" fill="#A4C2F7"/><path d="M40.5,49.187 C40.1423863,49.1873484 39.8118068,48.9967028 39.633,48.687 L36.633,43.487 C36.4515156,43.1774296 36.4498167,42.7943505 36.6285481,42.4831826 C36.8072796,42.1720146 37.1390366,41.980469 37.4978817,41.9812579 C37.8567268,41.9820468 38.1876384,42.1750492 38.365,42.487 L41.365,47.687 C41.5435415,47.9962425 41.5436393,48.3772222 41.3652566,48.6865563 C41.1868739,48.9958904 40.8570824,49.186634 40.5,49.187 Z" id="Shape" fill="#A4C2F7"/><path d="M48.186,41.5 C48.0104113,41.5003718 47.8378701,41.4541308 47.686,41.366 L42.486,38.366 C42.0117864,38.0879942 41.8508714,37.479353 42.1257255,37.0033057 C42.4005795,36.5272584 43.00814,36.3623097 43.486,36.634 L48.686,39.634 C49.0779413,39.8603139 49.2690208,40.3216562 49.1518809,40.7588223 C49.0347411,41.1959884 48.6385881,41.4999801 48.186,41.5 Z" id="Shape" fill="#A4C2F7"/><path d="M51,31 L45,31 C44.4477153,31 44,30.5522847 44,30 C44,29.4477153 44.4477153,29 45,29 L51,29 C51.5522847,29 52,29.4477153 52,30 C52,30.5522847 51.5522847,31 51,31 Z" id="Shape" fill="#A4C2F7"/><path d="M42.991,23.5 C42.5384119,23.4999801 42.1422589,23.1959884 42.0251191,22.7588223 C41.9079792,22.3216562 42.0990587,21.8603139 42.491,21.634 L47.691,18.634 C48.16886,18.3623097 48.7764205,18.5272584 49.0512745,19.0033057 C49.3261286,19.479353 49.1652136,20.0879942 48.691,20.366 L43.491,23.366 C43.3391299,23.4541308 43.1665887,23.5003718 42.991,23.5 Z" id="Shape" fill="#A4C2F7"/><path d="M37.5,18.01 C37.1429176,18.009634 36.8131261,17.8188904 36.6347434,17.5095563 C36.4563607,17.2002222 36.4564585,16.8192425 36.635,16.51 L39.635,11.31 C39.8123616,10.9980492 40.1432732,10.8050468 40.5021183,10.8042579 C40.8609634,10.803469 41.1927204,10.9950146 41.3714519,11.3061826 C41.5501833,11.6173505 41.5484844,12.0004296 41.367,12.31 L38.367,17.51 C38.1881932,17.8197028 37.8576137,18.0103484 37.5,18.01 Z" id="Shape" fill="#A4C2F7"/><path d="M30,46 C28.9020788,45.9988232 27.8070053,45.8882774 26.731,45.67 C26.3809004,45.5994051 26.095026,45.3474545 25.981,45.009 C25.7169866,45.2356115 25.354164,45.3087062 25.023,45.202 C22.9201583,44.519224 20.9843097,43.4020738 19.341,41.923 C19.3145363,41.8998623 19.2894909,41.8751508 19.266,41.849 C18.8483209,41.4821461 18.4551443,41.0883013 18.089,40.67 C16.60089,39.0317898 15.4792762,37.0950456 14.799,34.989 C14.6101758,34.4320502 14.4545689,33.8643857 14.333,33.289 C13.8916705,31.1246014 13.8916705,28.8933986 14.333,26.729 C14.4558852,26.1438113 14.6134973,25.5664568 14.805,25 C15.4875368,22.9042407 16.6022178,20.9750113 18.077,19.337 C18.101,19.3123333 18.125,19.2883333 18.149,19.265 C18.5170239,18.8468125 18.9115009,18.4526695 19.33,18.085 C20.9740487,16.6065895 22.9086581,15.4877177 25.01,14.8 C25.5669049,14.611029 26.1345781,14.4554198 26.71,14.334 C28.8754422,13.8930028 31.1075578,13.8930028 33.273,14.334 C33.8575684,14.4563194 34.4342712,14.6136019 35,14.805 C37.0958177,15.4860667 39.0246849,16.6009321 40.661,18.077 C40.6874637,18.1001377 40.7125091,18.1248492 40.736,18.151 C41.1536791,18.5178539 41.5468557,18.9116987 41.913,19.33 C43.3926545,20.9731039 44.5122918,22.9075183 45.2,25.009 C45.389309,25.5658835 45.5452523,26.133557 45.667,26.709 C46.1083295,28.8733986 46.1083295,31.1046014 45.667,33.269 C45.5458317,33.8547584 45.389889,34.4327815 45.2,35 C44.5186937,37.0963077 43.4038718,39.0257809 41.928,40.663 C41.904,40.6883333 41.88,40.7123333 41.856,40.735 C41.4879761,41.1531875 41.0934991,41.5473305 40.675,41.915 C39.0294849,43.3940092 37.0931167,44.5129132 34.99,45.2 C34.4330951,45.388971 33.8654219,45.5445802 33.29,45.666 C32.207156,45.886378 31.1050405,45.9982645 30,46 Z M26.929,43.69 C26.996178,43.6897517 27.0632014,43.696454 27.129,43.71 C29.0277421,44.0943787 30.9842579,44.0943787 32.883,43.71 C33.380598,43.6042711 33.8714652,43.4690322 34.353,43.305 C36.1981363,42.6961004 37.8973945,41.712158 39.344,40.415 C39.7247069,40.0817313 40.0815817,39.7221833 40.412,39.339 C40.4430235,39.3034342 40.4764342,39.2700235 40.512,39.239 C41.7685068,37.8220886 42.7184001,36.1606266 43.302,34.359 C43.4689653,33.8674495 43.6071987,33.3666038 43.716,32.859 C44.1000052,30.9652708 44.1000052,29.0137292 43.716,27.12 C43.6097129,26.6222099 43.4744833,26.1310426 43.311,25.649 C42.7063745,23.8025458 41.7219305,22.1031025 40.421,20.66 C40.0880833,20.2792987 39.7288681,19.9224226 39.346,19.592 C39.3103066,19.5611133 39.2768867,19.5276934 39.246,19.492 C37.8273968,18.2336837 36.1634046,17.2830256 34.359,16.7 C33.8678209,16.5318296 33.366903,16.3935763 32.859,16.286 C30.9654558,15.9035084 29.0145442,15.9035084 27.121,16.286 C26.623402,16.3917289 26.1325348,16.5269678 25.651,16.691 C23.8058637,17.2998996 22.1066055,18.283842 20.66,19.581 C20.2792931,19.9142687 19.9224183,20.2738167 19.592,20.657 C19.561239,20.69281 19.52781,20.726239 19.492,20.757 C18.2349189,22.1734554 17.2843468,23.8345734 16.7,25.636 C16.5319633,26.1300992 16.393058,26.6336308 16.284,27.144 C15.8999948,29.0377292 15.8999948,30.9892708 16.284,32.883 C16.3902871,33.3807901 16.5255167,33.8719574 16.689,34.354 C17.2843421,36.2017179 18.2680127,37.9007233 19.574,39.337 C19.9083097,39.7199389 20.2692046,40.0788289 20.654,40.411 C20.6896934,40.4418867 20.7231133,40.4753066 20.754,40.511 C22.1722537,41.7669875 23.8346501,42.7164906 25.637,43.3 C25.9389908,43.3973574 26.1768577,43.6322556 26.278,43.933 C26.4589763,43.7767864 26.6899293,43.6905781 26.929,43.69 Z" id="Shape" fill="#428DFF"/><path d="M34.669,16.75 C34.3281617,16.7496639 34.0109657,16.5757504 33.827402,16.2885654 C33.6438384,16.0013804 33.6191885,15.6404765 33.762,15.331 C34.6350763,13.6289457 34.8929716,11.6774206 34.492,9.807 C34.2455752,9.01214383 33.8061659,8.29067429 33.213,7.707 C31.9755252,6.51545414 30.8835812,5.18148993 29.96,3.733 C29.0366783,5.18167783 27.9447102,6.51567138 26.707,7.707 C26.1060766,8.28969177 25.6661521,9.01796147 25.43,9.821 C25.3296084,10.163975 25.0538677,10.4273386 24.7066469,10.5118844 C24.359426,10.5964302 23.9934761,10.4893136 23.7466468,10.2308844 C23.4998176,9.97245523 23.4096083,9.60197497 23.51,9.259 C23.8434557,8.13524384 24.4569852,7.11464456 25.293,6.293 C28.041,3.545 28.755,1.872 28.938,1.236 C28.9267854,1.1578182 28.9207722,1.07897826 28.92,1 C28.92,0.44771525 29.3677153,7.58575603e-16 29.92,6.57121384e-16 C30.4883064,-0.00602406966 30.962355,0.432909814 31,1 C30.9992682,1.07901756 30.9929189,1.15788309 30.981,1.236 C31.165,1.872 31.881,3.545 34.627,6.293 C35.4525355,7.10920798 36.0636402,8.11672362 36.406,9.226 C36.951363,11.565898 36.6583395,14.0229781 35.578,16.169 C35.4144054,16.5235153 35.0594409,16.7503957 34.669,16.75 Z" id="Shape" fill="#428DFF"/><path d="M26.919,16.31 C26.4058175,16.3094932 25.976318,15.9206104 25.925,15.41 C25.8376979,13.4999405 25.0799768,11.6817637 23.785,10.275 C23.1776364,9.70414434 22.4355519,9.29646227 21.628,9.09 C19.9623801,8.67755461 18.3512423,8.07002141 16.828,7.28 C16.7536939,8.99382767 16.4774513,10.6929043 16.005,12.342 C15.7779016,13.1484163 15.7620607,13.999693 15.959,14.814 C16.0479341,15.1617367 15.9436824,15.5304643 15.6858356,15.7801544 C15.4279888,16.0298445 15.0561015,16.1221936 14.7114022,16.0221312 C14.3667029,15.9220687 14.1020697,15.6449447 14.018,15.296 C13.7386063,14.1537877 13.7572001,12.9589655 14.072,11.826 C15.072,8.054 14.852,6.255 14.693,5.626 C14.6442457,5.56482799 14.5998051,5.50033905 14.56,5.433 C14.4276573,5.2023814 14.3926091,4.92855165 14.4626022,4.67203556 C14.5325952,4.41551947 14.7018658,4.1974402 14.933,4.066 C15.1818338,3.92951908 15.4735521,3.89372543 15.748,3.966 C16.0181294,4.03655296 16.2497518,4.21035956 16.393,4.45 C16.393,4.45 16.421,4.504 16.466,4.615 C16.947,5.074 18.406,6.158 22.146,7.161 C23.2739398,7.45021874 24.3106278,8.01946846 25.16,8.816 C26.8111005,10.5532336 27.7880254,12.8226778 27.915,15.216 C27.9403473,15.4800269 27.8597623,15.743308 27.6909759,15.9479146 C27.5221896,16.1525212 27.2790305,16.2816898 27.015,16.307 C26.982,16.309 26.95,16.31 26.919,16.31 Z" id="Shape" fill="#428DFF"/><path d="M18.83,21.01 L18.82,21.01 C18.2686982,21.0072435 17.8236248,20.5588195 17.8250031,20.0075125 C17.8263814,19.4562055 18.2736913,19.0100125 18.825,19.0100125 C19.3763087,19.0100125 19.8236186,19.4562055 19.8249969,20.0075125 C19.8263752,20.5588195 19.3813018,21.0072435 18.83,21.01 Z" id="Shape" fill="#428DFF"/><path d="M5.1,16.67 C4.98658538,16.6698501 4.87400765,16.6505801 4.767,16.613 C4.64236336,16.5709447 4.52046161,16.5211821 4.402,16.464 C4.16071311,16.33541 3.98073132,16.1158322 3.902,15.854 C3.82318879,15.592691 3.85348911,15.3106095 3.986,15.072 C4.26340943,14.57888 4.87605065,14.385898 5.386,14.631 C5.53078962,14.7174721 5.66502561,14.8204983 5.786,14.938 C6.0874854,15.2185966 6.18610105,15.6553351 6.03443732,16.0382529 C5.8827736,16.4211706 5.5118545,16.6719387 5.1,16.67 Z" id="Shape" fill="#428DFF"/><path d="M15.311,27.93 C15.239036,27.9302626 15.1672646,27.9225489 15.097,27.907 C14.5574352,27.7893383 14.2153934,27.2565768 14.333,26.717 C14.4559066,26.1357551 14.6135222,25.5623948 14.805,25 C14.9882545,24.4818112 15.5553699,24.208652 16.0747896,24.3883877 C16.5942094,24.5681234 16.8712087,25.1333731 16.695,25.654 C16.5298573,26.1412887 16.3932918,26.6377994 16.286,27.141 C16.1868224,27.6004605 15.7810412,27.9288311 15.311,27.93 Z" id="Shape" fill="#428DFF"/><path d="M9.52,25.55 C9.2464223,25.5500521 8.98476861,25.4380181 8.796,25.24 C7.98873164,24.3915532 7.40999927,23.3521058 7.114,22.219 C6,18.064 4.786,16.724 4.44,16.413 C4.08788601,16.0965414 4.00593316,15.5765318 4.24365035,15.1671165 C4.48136754,14.7577013 4.9736071,14.5710828 5.423,14.72 C5.863,14.866 7.623,15.251 11.782,14.144 C12.9041904,13.8333132 14.0865569,13.8102712 15.22,14.077 C17.5293045,14.7499753 19.5157127,16.2385377 20.81,18.266 C21.1270114,18.7185974 21.0170974,19.3424886 20.5645,19.6595 C20.1119026,19.9765114 19.4880114,19.8665974 19.171,19.414 C18.1436933,17.8037649 16.5847437,16.6043007 14.765,16.024 C13.9527346,15.8339866 13.1057035,15.8515256 12.302,16.075 C10.6510994,16.5488402 8.94995054,16.8257637 7.234,16.9 C8.02398132,18.423478 8.6321538,20.034531 9.046,21.7 C9.25367487,22.5105951 9.66699848,23.2538887 10.246,23.858 C10.523749,24.1477423 10.6013509,24.5754746 10.443087,24.944321 C10.2848231,25.3131674 9.92136316,25.5516499 9.52,25.55 Z" id="Shape" fill="#428DFF"/><path d="M9.54,36.53 C9.44525058,36.5298926 9.35098952,36.5164267 9.26,36.49 C8.13542138,36.1577531 7.11421206,35.5440638 6.293,34.707 C3.546,31.961 1.873,31.246 1.236,31.062 C1.15782175,31.073247 1.07897966,31.0792604 1,31.08 C0.44771525,31.08 8.06280498e-16,30.6322847 7.38639835e-16,30.08 C-0.00602406966,29.5116936 0.432909814,29.037645 1,29 C1.07864574,29.000784 1.15715229,29.0067973 1.235,29.018 C1.947,28.802 3.606,28.059 6.293,25.373 C7.10897293,24.5466685 8.11702304,23.9354479 9.227,23.594 C11.5666055,23.0493091 14.0231409,23.3423099 16.169,24.422 C16.4933972,24.5716943 16.7132916,24.8830813 16.7458511,25.2388646 C16.7784106,25.594648 16.6186887,25.9407756 16.3268511,26.1468647 C16.0350134,26.3529537 15.6553972,26.3876943 15.331,26.238 C13.6285098,25.3651686 11.676759,25.1072902 9.806,25.508 C9.01121263,25.7545772 8.28977818,26.1939652 7.706,26.787 C6.51461381,28.0246478 5.18062804,29.1166095 3.732,30.04 C5.18111119,30.9631424 6.51545625,32.0551234 7.707,33.293 C8.28963953,33.893491 9.01746763,34.3333568 9.82,34.57 C10.2977444,34.7093421 10.6003279,35.1787726 10.5299495,35.6714214 C10.4595711,36.1640701 10.0376504,36.53 9.54,36.53 Z" id="Shape" fill="#428DFF"/><path d="M13.68,46.177 C13.0516859,46.1751117 12.4263401,46.0907237 11.82,45.926 C8.053,44.926 6.252,45.146 5.62,45.305 C5.55890768,45.354632 5.49404515,45.399434 5.426,45.439 C4.94682081,45.7120874 4.33700864,45.545653 4.063,45.067 C3.92605918,44.8179522 3.8902495,44.5257452 3.963,44.251 C4.03341631,43.9805475 4.20722434,43.7485641 4.447,43.605 C4.447,43.605 4.501,43.577 4.614,43.532 C5.072,43.05 6.156,41.591 7.159,37.851 C7.45095526,36.7232354 8.02257727,35.6872995 8.821,34.839 C10.5584301,33.1881974 12.8277591,32.2113221 15.221,32.084 C15.7710756,32.0318091 16.2593091,32.4354244 16.3115,32.9855 C16.3636909,33.5355756 15.9600756,34.0238091 15.41,34.076 C13.503723,34.1770655 11.6905488,34.9321428 10.276,36.214 C9.70513942,36.8217493 9.29746924,37.5641563 9.091,38.372 C8.67785347,40.0375443 8.07000066,41.6486396 7.28,43.172 C8.99457438,43.2461405 10.6943714,43.5227267 12.344,43.996 C13.1506072,44.2220552 14.0016997,44.2375484 14.816,44.041 C15.1660481,43.945834 15.540183,44.0476979 15.7936713,44.3071858 C16.0471595,44.5666737 16.1402451,44.9430887 16.0369181,45.2908153 C15.9335911,45.6385419 15.6500568,45.9030442 15.296,45.982 C14.7672926,46.1126114 14.2246004,46.1780971 13.68,46.177 Z" id="Shape" fill="#428DFF"/><path d="M20.01,42.175 C19.459662,42.1750069 19.0127517,41.7303311 19.01,41.18 L19.01,41.17 C19.01,40.6177153 19.4577153,40.17 20.01,40.17 C20.5622847,40.17 21.01,40.6177153 21.01,41.17 C21.01,41.7222847 20.5622847,42.17 20.01,42.17 L20.01,42.175 Z" id="Shape" fill="#428DFF"/><path d="M15.558,56.144 C15.3888952,56.1448362 15.2224688,56.1017652 15.075,56.019 C14.8360211,55.8800783 14.6576633,55.6567743 14.575,55.393 C14.4933791,55.1344088 14.5159852,54.8541647 14.638,54.612 C14.7236481,54.4709497 14.8242272,54.3395263 14.938,54.22 C15.2603875,53.8737663 15.7812911,53.8008211 16.1863831,54.0451814 C16.5914751,54.2895418 16.7699036,54.7843396 16.614,55.231 C16.5725651,55.3560471 16.5231297,55.4782995 16.466,55.597 C16.33741,55.8382869 16.1178322,56.0182687 15.856,56.097 C15.759394,56.1267012 15.659058,56.142526 15.558,56.144 Z" id="Shape" fill="#428DFF"/><path d="M26.931,45.69 C26.8587081,45.6902142 26.7866107,45.6825015 26.716,45.667 C26.135212,45.5456386 25.5621916,45.3896942 25,45.2 C24.4780909,45.0188506 24.2018506,44.4489091 24.383,43.927 C24.5641494,43.4050909 25.1340909,43.1288506 25.656,43.31 C26.1427062,43.4756671 26.6389353,43.611913 27.142,43.718 C27.6409844,43.8269079 27.9777161,44.2943266 27.923007,44.8021191 C27.868298,45.3099116 27.4397311,45.6948778 26.929,45.695 L26.931,45.69 Z" id="Shape" fill="#428DFF"/><path d="M15.67,55.89 C15.3495996,55.8898687 15.0486631,55.7362196 14.86066,55.4767753 C14.672657,55.2173311 14.6203554,54.8835118 14.72,54.579 C14.864,54.137 15.251,52.379 14.144,48.217 C13.8334535,47.0951655 13.8100695,45.9132399 14.076,44.78 C14.749313,42.4702998 16.2386597,40.4837934 18.267,39.19 C18.7195461,38.8799532 19.3373863,38.9923608 19.65173,39.4419328 C19.9660738,39.8915048 19.859557,40.5103877 19.413,40.829 C17.8032559,41.8566068 16.6041978,43.4154884 16.024,45.235 C15.8339866,46.0472654 15.8515256,46.8942965 16.075,47.698 C16.5486941,49.3488983 16.8252855,51.0500695 16.899,52.766 C18.4222016,51.9753994 20.0333292,51.3671988 21.699,50.954 C22.5095951,50.7463251 23.2528887,50.3330015 23.857,49.754 C24.2563019,49.3720951 24.8895951,49.3861982 25.2715,49.7855 C25.6534048,50.1848019 25.6393018,50.8180951 25.24,51.2 C24.3921284,52.0077326 23.3529647,52.5868427 22.22,52.883 C18.064,54 16.725,55.214 16.413,55.56 C16.2232403,55.7702542 15.9532235,55.8901809 15.67,55.89 Z" id="Shape" fill="#428DFF"/><path d="M30.08,60 C29.5116936,60.0060241 29.037645,59.5670902 29,59 C29.0007522,58.921647 29.0071017,58.8434479 29.019,58.766 C28.829,58.115 28.11,56.444 25.373,53.707 C24.5474645,52.890792 23.9363598,51.8832764 23.594,50.774 C23.048637,48.434102 23.3416605,45.9770219 24.422,43.831 C24.5716943,43.5066028 24.8830813,43.2867084 25.2388646,43.2541489 C25.594648,43.2215894 25.9407756,43.3813113 26.1468647,43.6731489 C26.3529537,43.9649865 26.3876943,44.3446028 26.238,44.669 C25.3649237,46.3710543 25.1070284,48.3225794 25.508,50.193 C25.7544248,50.9878562 26.1938341,51.7093257 26.787,52.293 C28.0242469,53.4851246 29.1161638,54.8193912 30.04,56.268 C30.9635126,54.8194604 32.055463,53.4854884 33.293,52.294 C33.8939234,51.7113082 34.3338479,50.9830385 34.57,50.18 C34.725192,49.6498066 35.2808066,49.345808 35.811,49.501 C36.3411934,49.656192 36.645192,50.2118066 36.49,50.742 C36.1565443,51.8657562 35.5430148,52.8863554 34.707,53.708 C31.96,56.455 31.245,58.128 31.062,58.764 C31.0731711,58.8421866 31.0791841,58.9210236 31.08,59 C31.08,59.5522847 30.6322847,60 30.08,60 Z" id="Shape" fill="#428DFF"/><path d="M44.522,56.078 C44.4300473,56.0784756 44.3384845,56.0660203 44.25,56.041 C43.9798706,55.970447 43.7482482,55.7966404 43.605,55.557 C43.605,55.557 43.577,55.503 43.532,55.392 C43.051,54.933 41.592,53.849 37.852,52.846 C36.7240746,52.554449 35.6880433,51.9827743 34.84,51.184 C33.1888995,49.4467664 32.2119746,47.1773222 32.085,44.784 C32.0596527,44.5199731 32.1402377,44.256692 32.3090241,44.0520854 C32.4778104,43.8474788 32.7209695,43.7183102 32.985,43.693 C33.2498075,43.6637497 33.5151817,43.7429041 33.7206965,43.9124396 C33.9262112,44.0819751 34.0543733,44.3274611 34.076,44.593 C34.1633021,46.5030595 34.9210232,48.3212363 36.216,49.728 C36.8233636,50.2988557 37.5654481,50.7065377 38.373,50.913 C40.0386199,51.3254454 41.6497577,51.9329786 43.173,52.723 C43.2473061,51.0091723 43.5235487,49.3100957 43.996,47.661 C44.2230984,46.8545837 44.2389393,46.003307 44.042,45.189 C43.9530659,44.8412633 44.0573176,44.4725357 44.3151644,44.2228456 C44.5730112,43.9731555 44.9448985,43.8808064 45.2895978,43.9808688 C45.6342971,44.0809313 45.8989303,44.3580553 45.983,44.707 C46.2623937,45.8492123 46.2437999,47.0440345 45.929,48.177 C44.929,51.949 45.149,53.748 45.308,54.377 C45.3567543,54.438172 45.4011949,54.502661 45.441,54.57 C45.5733427,54.8006186 45.6083909,55.0744484 45.5383978,55.3309644 C45.4684048,55.5874805 45.2991342,55.8055598 45.068,55.937 C44.9008404,56.0293869 44.7129912,56.0778974 44.522,56.078 Z" id="Shape" fill="#428DFF"/><path d="M41.18,40.99 L41.17,40.99 C40.6186982,40.9872435 40.1736248,40.5388195 40.1750031,39.9875125 C40.1763814,39.4362055 40.6236913,38.9900125 41.175,38.9900125 C41.7263087,38.9900125 42.1736186,39.4362055 42.1749969,39.9875125 C42.1763752,40.5388195 41.7313018,40.9872435 41.18,40.99 Z" id="Shape" fill="#428DFF"/><path d="M46.358,46.108 C45.8266128,46.1076139 45.2970673,46.0455316 44.78,45.923 C42.4706955,45.2500247 40.4842873,43.7614623 39.19,41.734 C38.8729886,41.2814026 38.9829027,40.6575115 39.4355,40.3405 C39.8880974,40.0234886 40.5119885,40.1334027 40.829,40.586 C41.8563067,42.1962351 43.4152563,43.3956993 45.235,43.976 C46.0472155,44.1664881 46.894366,44.1489466 47.698,43.925 C49.3489006,43.4511598 51.0500495,43.1742363 52.766,43.1 C51.9760187,41.576522 51.3678462,39.965469 50.954,38.3 C50.7463251,37.4894049 50.3330015,36.7461113 49.754,36.142 C49.3723713,35.7426981 49.3866982,35.1096288 49.786,34.728 C50.1853019,34.3463713 50.8183712,34.3606982 51.2,34.76 C52.0072684,35.6084468 52.5860007,36.6478942 52.882,37.781 C53.882,41.521 54.969,42.981 55.428,43.462 C55.54,43.507 55.594,43.536 55.594,43.536 C55.8352869,43.66459 56.0152687,43.8841678 56.094,44.146 C56.1728112,44.407309 56.1425109,44.6893905 56.01,44.928 C55.7332631,45.421948 55.1198727,45.6151659 54.61,45.369 C54.5400327,45.3294681 54.4731732,45.2846723 54.41,45.235 C53.779,45.077 51.98,44.852 48.21,45.856 C47.6065181,46.0214862 46.9837579,46.1062246 46.358,46.108 Z" id="Shape" fill="#428DFF"/><path d="M48.589,36.714 C46.9408789,36.6732332 45.3197713,36.2861844 43.831,35.578 C43.3295254,35.3465927 43.1105927,34.7524746 43.342,34.251 C43.5734073,33.7495254 44.1675254,33.5305927 44.669,33.762 C46.3714902,34.6348314 48.323241,34.8927098 50.194,34.492 C50.9887874,34.2454228 51.7102218,33.8060348 52.294,33.213 C53.485733,31.9749289 54.8204331,30.882932 56.27,29.96 C54.8204331,29.037068 53.485733,27.9450711 52.294,26.707 C51.7110805,26.1063628 50.9828911,25.6664868 50.18,25.43 C49.6498067,25.2753603 49.3453603,24.7201934 49.5,24.19 C49.6546398,23.6598067 50.2098066,23.3553603 50.74,23.51 C51.8645786,23.8422469 52.8857879,24.4559362 53.707,25.293 C56.455,28.04 58.128,28.755 58.765,28.938 C58.8428477,28.9267973 58.9213543,28.920784 59,28.92 C59.5522847,28.92 60,29.3677153 60,29.92 C60.0060241,30.4883064 59.5670902,30.962355 59,31 C58.9213543,30.999216 58.8428477,30.9932027 58.765,30.982 C58.128,31.165 56.455,31.882 53.707,34.627 C52.8910271,35.4533315 51.882977,36.0645521 50.773,36.406 C50.063868,36.6144036 49.3281095,36.7181644 48.589,36.714 Z" id="Shape" fill="#428DFF"/><path d="M44.689,27.92 C44.1367153,27.9456812 43.6681813,27.5187847 43.6425,26.9665 C43.6168188,26.4142153 44.0437153,25.9456813 44.596,25.92 C46.502277,25.8189345 48.3154512,25.0638572 49.73,23.782 C50.3008606,23.1742507 50.7085308,22.4318437 50.915,21.624 C51.3281465,19.9584557 51.9359993,18.3473604 52.726,16.824 C51.0114256,16.7498595 49.3116286,16.4732733 47.662,16 C46.8553537,15.7742112 46.0043296,15.7587193 45.19,15.955 C44.8399519,16.050166 44.465817,15.9483021 44.2123287,15.6888142 C43.9588405,15.4293263 43.8657549,15.0529113 43.9690819,14.7051847 C44.0724089,14.3574581 44.3559432,14.0929558 44.71,14.014 C45.8521566,13.7341126 47.0471055,13.7527084 48.18,14.068 C51.947,15.073 53.748,14.848 54.38,14.689 C54.4410923,14.639368 54.5059549,14.594566 54.574,14.555 C55.0531792,14.2819126 55.6629914,14.448347 55.937,14.927 C56.0739408,15.1760478 56.1097505,15.4682548 56.037,15.743 C55.9665837,16.0134525 55.7927757,16.2454359 55.553,16.389 C55.553,16.389 55.499,16.417 55.386,16.462 C54.928,16.944 53.844,18.403 52.841,22.143 C52.5490447,23.2707646 51.9774227,24.3067005 51.179,25.155 C49.4415699,26.8058026 47.1722409,27.7826779 44.779,27.91 C44.753,27.918 44.721,27.92 44.689,27.92 Z" id="Shape" fill="#428DFF"/><path d="M39.99,19.825 C39.4377153,19.825 38.99,19.3772847 38.99,18.825 L38.99,18.815 C38.99,18.2627153 39.4377153,17.815 39.99,17.815 C40.5422847,17.815 40.99,18.2627153 40.99,18.815 C40.99,19.3672847 40.5422847,19.815 39.99,19.815 L39.99,19.825 Z" id="Shape" fill="#428DFF"/><path d="M41.161,20.99 C40.7245663,20.9900901 40.3384837,20.707134 40.2071475,20.2909307 C40.0758112,19.8747274 40.2295608,19.4214228 40.587,19.171 C42.1967441,18.1433932 43.3958022,16.5845116 43.976,14.765 C44.1660134,13.9527346 44.1484744,13.1057035 43.925,12.302 C43.4509675,10.6511425 43.1740403,8.94997066 43.1,7.234 C41.5767984,8.02460061 39.9656708,8.63280125 38.3,9.046 C37.4894049,9.25367487 36.7461113,9.66699848 36.142,10.246 C35.883697,10.4928705 35.5133113,10.5831853 35.1703636,10.4829236 C34.827416,10.3826618 34.5640083,10.1070558 34.4793636,9.75992355 C34.394719,9.41279131 34.501697,9.04687052 34.76,8.8 C35.6078716,7.99226743 36.6470353,7.41315734 37.78,7.117 C41.521,6.117 42.98,5.03 43.462,4.571 C43.507,4.46 43.535,4.406 43.535,4.406 C43.66359,4.16471311 43.8831678,3.98473132 44.145,3.906 C44.4054416,3.82726167 44.6866266,3.85682214 44.925,3.988 C45.1658651,4.12597157 45.3461058,4.34939854 45.43,4.614 C45.5116209,4.87259117 45.4890148,5.15283528 45.367,5.395 C45.3279213,5.46224766 45.2837946,5.52643203 45.235,5.587 C45.076,6.219 44.853,8.02 45.856,11.787 C46.1665465,12.9088345 46.1899305,14.0907601 45.924,15.224 C45.250687,17.5337002 43.7613403,19.5202066 41.733,20.814 C41.5650272,20.9302123 41.3652482,20.9916827 41.161,20.99 Z" id="Shape" fill="#428DFF"/><path d="M30,38 C25.581722,38 22,34.418278 22,30 C22,25.581722 25.581722,22 30,22 C34.418278,22 38,25.581722 38,30 C37.9950401,34.4162219 34.4162219,37.9950401 30,38 Z M30,24 C26.6862915,24 24,26.6862915 24,30 C24,33.3137085 26.6862915,36 30,36 C33.3137085,36 36,33.3137085 36,30 C35.9966926,26.6876624 33.3123376,24.0033074 30,24 Z" id="Shape" fill="#428DFF"/><path d="M30,24 C29.4477153,24 29,23.5522847 29,23 L29,19 C29,18.4477153 29.4477153,18 30,18 C30.5522847,18 31,18.4477153 31,19 L31,23 C31,23.5522847 30.5522847,24 30,24 Z" id="Shape" fill="#428DFF"/><path d="M26.5,24.938 C26.1423863,24.9383484 25.8118068,24.7477028 25.633,24.438 L23.633,20.974 C23.4515156,20.6644296 23.4498167,20.2813505 23.6285481,19.9701826 C23.8072796,19.6590146 24.1390366,19.467469 24.4978817,19.4682579 C24.8567268,19.4690468 25.1876384,19.6620492 25.365,19.974 L27.365,23.438 C27.5435415,23.7472425 27.5436393,24.1282222 27.3652566,24.4375563 C27.1868739,24.7468904 26.8570824,24.937634 26.5,24.938 Z" id="Shape" fill="#428DFF"/><path d="M23.937,27.5 C23.7614113,27.5003718 23.5888701,27.4541308 23.437,27.366 L19.973,25.366 C19.6610492,25.1886384 19.4680468,24.8577268 19.4672579,24.4988817 C19.466469,24.1400366 19.6580146,23.8082796 19.9691826,23.6295481 C20.2803505,23.4508167 20.6634296,23.4525156 20.973,23.634 L24.437,25.634 C24.8289413,25.8603139 25.0200208,26.3216562 24.9028809,26.7588223 C24.7857411,27.1959884 24.3895881,27.4999801 23.937,27.5 Z" id="Shape" fill="#428DFF"/><path d="M23,31 L19,31 C18.4477153,31 18,30.5522847 18,30 C18,29.4477153 18.4477153,29 19,29 L23,29 C23.5522847,29 24,29.4477153 24,30 C24,30.5522847 23.5522847,31 23,31 Z" id="Shape" fill="#428DFF"/><path d="M20.475,36.5 C20.0224119,36.4999801 19.6262589,36.1959884 19.5091191,35.7588223 C19.3919792,35.3216562 19.5830587,34.8603139 19.975,34.634 L23.439,32.634 C23.7485704,32.4525156 24.1316495,32.4508167 24.4428174,32.6295481 C24.7539854,32.8082796 24.945531,33.1400366 24.9447421,33.4988817 C24.9439532,33.8577268 24.7509508,34.1886384 24.439,34.366 L20.975,36.366 C20.8229833,36.4537772 20.650539,36.4999923 20.475,36.5 Z" id="Shape" fill="#428DFF"/><path d="M24.5,40.526 C24.1429176,40.525634 23.8131261,40.3348904 23.6347434,40.0255563 C23.4563607,39.7162222 23.4564585,39.3352425 23.635,39.026 L25.635,35.562 C25.9130058,35.0877864 26.521647,34.9268714 26.9976943,35.2017255 C27.4737416,35.4765795 27.6386903,36.08414 27.367,36.562 L25.367,40.026 C25.1881932,40.3357028 24.8576137,40.5263484 24.5,40.526 Z" id="Shape" fill="#428DFF"/><path d="M30,42 C29.4477153,42 29,41.5522847 29,41 L29,37 C29,36.4477153 29.4477153,36 30,36 C30.5522847,36 31,36.4477153 31,37 L31,41 C31,41.5522847 30.5522847,42 30,42 Z" id="Shape" fill="#428DFF"/><path d="M35.5,40.526 C35.1423863,40.5263484 34.8118068,40.3357028 34.633,40.026 L32.633,36.562 C32.4515156,36.2524296 32.4498167,35.8693505 32.6285481,35.5581826 C32.8072796,35.2470146 33.1390366,35.055469 33.4978817,35.0562579 C33.8567268,35.0570468 34.1876384,35.2500492 34.365,35.562 L36.365,39.026 C36.5435415,39.3352425 36.5436393,39.7162222 36.3652566,40.0255563 C36.1868739,40.3348904 35.8570824,40.525634 35.5,40.526 Z" id="Shape" fill="#428DFF"/><path d="M39.525,36.5 C39.349461,36.4999923 39.1770167,36.4537772 39.025,36.366 L35.561,34.366 C35.0867864,34.0879942 34.9258714,33.479353 35.2007255,33.0033057 C35.4755795,32.5272584 36.08314,32.3623097 36.561,32.634 L40.025,34.634 C40.4169413,34.8603139 40.6080208,35.3216562 40.4908809,35.7588223 C40.3737411,36.1959884 39.9775881,36.4999801 39.525,36.5 Z" id="Shape" fill="#428DFF"/><path d="M41,31 L37,31 C36.4477153,31 36,30.5522847 36,30 C36,29.4477153 36.4477153,29 37,29 L41,29 C41.5522847,29 42,29.4477153 42,30 C42,30.5522847 41.5522847,31 41,31 Z" id="Shape" fill="#428DFF"/><path d="M36.063,27.5 C35.6104119,27.4999801 35.2142589,27.1959884 35.0971191,26.7588223 C34.9799792,26.3216562 35.1710587,25.8603139 35.563,25.634 L39.027,23.634 C39.3365704,23.4525156 39.7196495,23.4508167 40.0308174,23.6295481 C40.3419854,23.8082796 40.533531,24.1400366 40.5327421,24.4988817 C40.5319532,24.8577268 40.3389508,25.1886384 40.027,25.366 L36.563,27.366 C36.4111299,27.4541308 36.2385887,27.5003718 36.063,27.5 Z" id="Shape" fill="#428DFF"/><path d="M33.5,24.938 C33.1429176,24.937634 32.8131261,24.7468904 32.6347434,24.4375563 C32.4563607,24.1282222 32.4564585,23.7472425 32.635,23.438 L34.635,19.974 C34.8123616,19.6620492 35.1432732,19.4690468 35.5021183,19.4682579 C35.8609634,19.467469 36.1927204,19.6590146 36.3714519,19.9701826 C36.5501833,20.2813505 36.5484844,20.6644296 36.367,20.974 L34.367,24.438 C34.1881932,24.7477028 33.8576137,24.9383484 33.5,24.938 Z" id="Shape" fill="#428DFF"/><path d="M30,34 C29.4477153,34 29,33.5522847 29,33 L29,27 C29,26.4477153 29.4477153,26 30,26 C30.5522847,26 31,26.4477153 31,27 L31,33 C31,33.5522847 30.5522847,34 30,34 Z" id="Shape" fill="#428DFF"/><path d="M33,31 L27,31 C26.4477153,31 26,30.5522847 26,30 C26,29.4477153 26.4477153,29 27,29 L33,29 C33.5522847,29 34,29.4477153 34,30 C34,30.5522847 33.5522847,31 33,31 Z" id="Shape" fill="#428DFF"/><path d="M28,33 C27.5956041,32.9999137 27.2310659,32.7562725 27.076322,32.3826546 C26.9215781,32.0090366 27.0070921,31.5789943 27.293,31.293 L31.293,27.293 C31.6853789,26.9140278 32.3090848,26.9194476 32.6948186,27.3051814 C33.0805524,27.6909152 33.0859722,28.3146211 32.707,28.707 L28.707,32.707 C28.5195073,32.8945494 28.2651948,32.9999434 28,33 Z" id="Shape" fill="#428DFF"/><path d="M32,33 C31.7348052,32.9999434 31.4804927,32.8945494 31.293,32.707 L27.293,28.707 C26.9140278,28.3146211 26.9194476,27.6909152 27.3051814,27.3051814 C27.6909152,26.9194476 28.3146211,26.9140278 28.707,27.293 L32.707,31.293 C32.9929079,31.5789943 33.0784219,32.0090366 32.923678,32.3826546 C32.7689341,32.7562725 32.4043959,32.9999137 32,33 Z" id="Shape" fill="#428DFF"/><circle id="Oval" fill="#A4C2F7" cx="23" cy="4" r="1"/><circle id="Oval" fill="#A4C2F7" cx="37" cy="4" r="1"/><circle id="Oval" fill="#A4C2F7" cx="49" cy="11" r="1"/><circle id="Oval" fill="#A4C2F7" cx="56" cy="23" r="1"/><circle id="Oval" fill="#A4C2F7" cx="56" cy="37" r="1"/><circle id="Oval" fill="#A4C2F7" cx="49" cy="49" r="1"/><circle id="Oval" fill="#A4C2F7" cx="37" cy="56" r="1"/><circle id="Oval" fill="#A4C2F7" cx="23" cy="56" r="1"/><circle id="Oval" fill="#A4C2F7" cx="11" cy="49" r="1"/><circle id="Oval" fill="#A4C2F7" cx="4" cy="37" r="1"/><circle id="Oval" fill="#A4C2F7" cx="4" cy="23" r="1"/><circle id="Oval" fill="#A4C2F7" cx="11" cy="11" r="1"/></g></g></svg>
